<svg width="68" height="68" viewBox="0 0 68 68" fill="none" xmlns="http://www.w3.org/2000/svg">
<path d="M67.9989 34.0191C67.8667 52.7564 53.1337 67.4705 35.0197 67.9805C15.6969 68.5282 0.113972 53.1153 0.000641283 34.1891C-0.112689 15.5085 14.8091 0.152229 33.6598 0.00112207C52.6993 -0.149985 67.9044 14.9796 67.9989 34.0191ZM58.3658 50.452C66.0723 39.5534 65.5812 22.3272 53.2093 11.6175C41.0262 1.07776 22.4212 2.39995 11.8248 14.6019C1.5306 26.4638 3.41944 42.1034 9.69039 50.4143C23.0445 36.8146 45.0684 36.8902 58.3658 50.452Z" fill="white"/>
<path d="M47.6186 22.6674C47.6374 30.1094 41.5176 36.2481 34.0756 36.2481C26.5769 36.2481 20.4382 30.1849 20.4193 22.7807C20.4004 15.1309 26.4447 9.06772 34.0945 9.04883C41.5176 9.04883 47.5997 15.1687 47.6186 22.6674Z" fill="white"/>
</svg>
