<!DOCTYPE svg PUBLIC "-//W3C//DTD SVG 1.1//EN" "http://www.w3.org/Graphics/SVG/1.1/DTD/svg11.dtd">
<!-- Uploaded to: SVG Repo, www.svgrepo.com, Transformed by: SVG Repo Mixer Tools -->
<svg width="800px" height="800px" viewBox="-7.5 0 382.05 382.05" xmlns="http://www.w3.org/2000/svg" fill="#ffffff" stroke="#ffffff" stroke-width="0.38205">
<g id="SVGRepo_bgCarrier" stroke-width="0"/>
<g id="SVGRepo_tracerCarrier" stroke-linecap="round" stroke-linejoin="round" stroke="#CCCCCC" stroke-width="0.7641">
<defs>
<style>.a{fill:#ffffff;}.b{fill:#ef8561;}.c{fill:#211715;}.d{fill:#ad7b59;}.e{fill:#90d954;}.f{fill:#fbd960;}.g{fill:#8c725a;}</style>
</defs>
<path class="a" d="M160.894,244.176c2.5-3.905,3.884-4.741,7.261-8.335-10.653-10.434-21.743-20.1-31.015-31.549l-.378.907c-.759,1.825-7.577,12.034-9.661,14.479l28.163,34.572Z"/>
<path class="b" d="M150.671,244.991c-7.889-8.445-18.347-19.8-27.068-26.558-.025,3.89-1.313,8.843-4.016,10.647,5.471,5.883,10.751,11.911,16.084,17.911l13.667,13.778Z"/>
<path class="b" d="M245.37,28.1c-1.315-9.113-14.8-14.98-23.017-6.839C221.64,32.2,241.214,35.6,245.37,28.1Z"/>
<path class="a" d="M200.752,198.91c-4.431.015-13.294-3-16.011-3.957-4.11-1.446-11.248-4.737-15.336-7.915a21.558,21.558,0,0,0,.686,8.788,31.825,31.825,0,0,0,1.539,5.3c1.187,3.99,2.846,9.524-.123,12.675a3.864,3.864,0,0,0-1.121,2.237c-.215,2.255,1.768,2.578,3.194,3.364a6.353,6.353,0,0,1,2.22,2.112c.819,2.1,3.018,6.7,5.227,8.821a8.545,8.545,0,0,0,5.419,2.461,22.059,22.059,0,0,0,10.622-1.4c3.355,2.576,4.169,7.9,5.872,11.393,0,0,1.655,7.2,17.213,3.463,14.815-3.555,3.457-24.164,3.457-24.164a14.329,14.329,0,0,1-.536-1.889,8.021,8.021,0,0,1-.2-3.681c-5.618-1.78-10.8-5.966-14.381-8.941a12.186,12.186,0,0,0,.484-7.507c-.441-1.662-1.436-3.389-3.1-3.8a3.684,3.684,0,0,0-3.176.843,5.364,5.364,0,0,0-1.353,1.779C201.155,198.9,200.958,198.909,200.752,198.91Z"/>
<path class="c" d="M298.3,145.646c0,16.624.139,33.248.2,49.872.049,14.122-.012,28.246.145,42.368q.224,20.2.919,40.385c.516,14.4,1.205,28.816,2.539,43.169.547,5.878,1.2,11.757,2.159,17.583a55.466,55.466,0,0,0,2.828,11.633,18.9,18.9,0,0,0,.969,2.112c1.246,2.252,4.7.237,3.453-2.019q-.213-.385-.4-.785c-.076-.161-.146-.324-.217-.487.209.477.03.071-.055-.154q-.42-1.115-.757-2.257c-.573-1.939-1.009-3.918-1.393-5.9-1.054-5.443-1.646-10.408-2.215-15.917-1.448-14.021-2.174-28.12-2.732-42.2-.548-13.828-.873-27.665-1.055-41.5-.169-12.892-.134-25.784-.167-38.677-.044-17.321-.179-34.642-.213-51.963q0-2.628,0-5.257c0-2.574-4-2.579-4,0Z"/>
<path class="c" d="M237.139,355.286c1.656-3.391,2.332-7.251,2.946-10.942.959-5.769,1.558-11.6,2.056-17.427,1.3-15.175,1.863-30.415,2.278-45.637.413-15.136.608-30.277.689-45.418.063-11.761-.024-23.523.108-35.283.2-18.027.508-36.049.758-54.075.016-1.128.03-2.256.031-3.384,0-2.574-4-2.578-4,0-.011,15.808-.587,31.617-.688,47.426q-.127,20.093-.186,40.183c-.053,14.691-.208,29.382-.548,44.069-.359,15.485-.873,30.981-1.994,46.433-.239,3.3-.51,6.6-.832,9.894q-.216,2.2-.464,4.393-.12,1.04-.247,2.076c-.042.335-.084.671-.128,1.006-.025.2-.051.395-.078.593-.057.437.032-.226-.033.247a66.166,66.166,0,0,1-2.544,12.384c-.114.331-.243.656-.364.985-.172.466.17-.367,0,.01-.07.15-.137.3-.21.448-1.125,2.3,2.323,4.334,3.454,2.019Z"/>
<path class="c" d="M260.184,69.425c-4.839-8.909-18.525-9.612-25.036-2.273a15.146,15.146,0,0,0-2.26,3.283c-.7,1.422-.133,2.751.588,4.061A10.451,10.451,0,0,0,238,78.746a18.1,18.1,0,0,0,12.7.793c4.157-1.164,8.853-3.966,9.686-8.573a2.054,2.054,0,0,0-1.4-2.46,2.018,2.018,0,0,0-2.461,1.4,6.8,6.8,0,0,1-.277,1.06c-.122.349.084-.136-.086.195-.1.192-.2.381-.315.565a3.012,3.012,0,0,1-.481.66,11.32,11.32,0,0,1-.991.968,13.189,13.189,0,0,1-4.3,2.2c-3.373,1.037-7.39,1.166-10.348-.4a6.324,6.324,0,0,1-3.322-3.96l-.2,1.541a11.651,11.651,0,0,1,10.529-6.616c4-.029,8.052,1.757,9.994,5.332C257.959,73.706,261.414,71.69,260.184,69.425Z"/>
<path class="c" d="M247.3,27.565c-1.675-10.659-15.858-15.521-24.278-9.455-1.348.971-2.68,1.9-2.685,3.7a10.026,10.026,0,0,0,.467,3.09,11.127,11.127,0,0,0,3.342,4.961,18.924,18.924,0,0,0,11.628,4.246c4.206.149,9.091-1.1,11.325-5,1.282-2.237-2.173-4.254-3.454-2.019a4.7,4.7,0,0,1-1.2,1.4c-.023.017-.614.4-.863.532-.164.089-.331.172-.5.251-.012.006-.3.13-.109.051s-.175.064-.207.076a12.2,12.2,0,0,1-5.209.7c-3.41-.163-7.206-1.432-9.535-3.989a6.415,6.415,0,0,1-1.665-4.851l-.586,1.414a11.623,11.623,0,0,1,12.152-2.536,11.09,11.09,0,0,1,7.522,8.493,2.014,2.014,0,0,0,2.46,1.4A2.049,2.049,0,0,0,247.3,27.565Z"/>
<path class="c" d="M252.825,30.069a128.917,128.917,0,0,0,10.454,25.484,162.575,162.575,0,0,0,17.266,26.8A87.409,87.409,0,0,0,291.8,94.186c1.947,1.664,4.789-1.152,2.828-2.829-7.485-6.4-13.593-14.335-18.967-22.541A171.257,171.257,0,0,1,261.314,42.1a101.108,101.108,0,0,1-4.631-13.1c-.672-2.482-4.532-1.429-3.858,1.063Z"/>
<path class="c" d="M184.821.971c-5.09,8.827-3.458,21.155,4.46,27.776l1.414-3.414c-5.884.156-10.74,3.973-13.821,8.766a29.913,29.913,0,0,0-4.3,18.744c.832,8.911,4.3,18.213,10.956,24.415a27.58,27.58,0,0,0,17.459,7.182l-1.727-3.009c-5.97,8.452-5.572,20.2-.3,28.895,5.315,8.771,15.964,14.22,25.957,15.271a24.91,24.91,0,0,0,15.805-3.314l-3.01-1.727c.2,10.472,8.236,18.963,17.626,22.615a35.036,35.036,0,0,0,12.444,1.925,45.677,45.677,0,0,0,14.412-2.077c4.41-1.456,9.1-3.979,11.087-8.419h-3.454c3.542,4.632,10.376,6.174,15.874,6.731,6.018.609,13.007-.617,17.967-4.227a2.058,2.058,0,0,0,.717-2.736,2.015,2.015,0,0,0-2.736-.718c-4.27,3.108-10.058,4.155-15.249,3.744a30.823,30.823,0,0,1-7.777-1.668c-1.831-.646-4.223-1.682-5.342-3.145-.8-1.045-2.768-1.533-3.454,0-1.394,3.115-4.407,5-7.628,6.206a39.619,39.619,0,0,1-12.622,2.285,36.876,36.876,0,0,1-11.543-1.2,25.265,25.265,0,0,1-9.465-5.482c-4-3.605-6.751-8.357-6.857-13.833a2.017,2.017,0,0,0-3.009-1.727c-7.536,4.716-17.364,3.212-24.922-.666-3.943-2.024-7.85-4.768-10.434-8.43a24.428,24.428,0,0,1-4.383-11.979,21.444,21.444,0,0,1,3.754-14.3c.936-1.325-.344-2.928-1.727-3.01a23.291,23.291,0,0,1-13.485-5,28.541,28.541,0,0,1-7.7-10.413,40.208,40.208,0,0,1-3.084-10.861c-.023-.163-.028-.194-.08-.655q-.063-.561-.108-1.123a30.15,30.15,0,0,1,.01-4.965,25.2,25.2,0,0,1,2.285-8.6c2.223-4.673,6.313-9.333,11.863-9.48,1.6-.042,2.812-2.245,1.414-3.414-6.562-5.488-8.092-15.545-3.834-22.929,1.288-2.234-2.167-4.251-3.454-2.019Z"/>
<path class="d" d="M241.952,196.262c-.595-3.738-5.493-8.737-12.736-5.361l-.4.179a33.469,33.469,0,0,0-1.081-7.073,30.05,30.05,0,0,0-9.111-14.44c-11.74-10-27.375-5.7-29.595-5.062-.457.132-1,.29-1.606.49a26.033,26.033,0,0,0-7.835,4.092,27.188,27.188,0,0,0-9.994,16.531c-.059.408-.112.8-.158,1.189a71.484,71.484,0,0,0,15.309,8.146c2.845,1,12.424,4.259,16.6,3.934a5.319,5.319,0,0,1,1.35-1.779,3.684,3.684,0,0,1,3.176-.843c1.669.414,2.664,2.141,3.1,3.8a12.186,12.186,0,0,1-.484,7.507c3.586,2.975,8.766,7.164,14.385,8.945a37.3,37.3,0,0,1,2.429-7.281c.068-.182.147-.387.224-.59l.3.748a16.71,16.71,0,0,0,5.869,5.211c2.44,1.254,4.844,2.3,7.659,2.194,2.22-.078,8.41-1.062,9.469-4.5C243.492,210.4,242.868,201.943,241.952,196.262Z"/>
<path class="c" d="M208.319,210.014c4.042,3.289,8.294,6.368,13.23,8.166a2.011,2.011,0,0,0,2.46-1.4,2.053,2.053,0,0,0-1.4-2.461,23.219,23.219,0,0,1-3.062-1.376c-1.082-.57-2.131-1.2-3.154-1.869-.963-.63-1.9-1.3-2.826-1.987q-.363-.272-.723-.548c.166.128.013.009-.066-.052l-.307-.241q-.667-.526-1.326-1.064a2.05,2.05,0,0,0-2.829,0,2.024,2.024,0,0,0,0,2.829Z"/>
<path class="c" d="M202.83,200.489a3.939,3.939,0,0,1,1.278-1.967,1.6,1.6,0,0,1,1.445-.267c-.236-.093.251.143.3.179-.181-.128.253.247.258.252a3.976,3.976,0,0,1,.575.895,8.6,8.6,0,0,1,.6,2.142,10.43,10.43,0,0,1-3.337,9,2,2,0,0,0,2.828,2.828,14.327,14.327,0,0,0,4.1-14.12c-.746-2.656-2.645-5.115-5.6-5.245-3.175-.139-5.369,2.5-6.3,5.244a2,2,0,0,0,3.857,1.063Z"/>
<path class="c" d="M178.078,225.921a9.773,9.773,0,0,0,1.834-.541,9.6,9.6,0,0,0,1.786-.89,6.393,6.393,0,0,0,2-1.973,2.071,2.071,0,0,0,.2-1.541,2,2,0,0,0-3.655-.478,2.619,2.619,0,0,1-.174.256l.313-.405a4.481,4.481,0,0,1-.8.781l.405-.313a7.092,7.092,0,0,1-1.55.882l.478-.2a9.8,9.8,0,0,1-1.9.567,2.021,2.021,0,0,0-1.2.919,2,2,0,0,0,.718,2.737,2.227,2.227,0,0,0,1.541.2Z"/>
<path class="c" d="M177.171,205.858c-.031,1.322.954,4.077,3.219,3.721,2.9-.8,2.15-4.253.743-5.59C179.982,202.894,177.479,202.986,177.171,205.858Z"/>
<path class="c" d="M167.952,195.135c.686,4.41,2.942,8.516,3.2,13a7.932,7.932,0,0,1-.222,2.7,6.921,6.921,0,0,1-1.394,2.227,4.875,4.875,0,0,0-.2,6.019c1.113,1.319,2.858,1.519,4.075,2.659,1.145,1.071,1.69,3.2,2.487,4.7,2.082,3.895,4.9,7.512,9.531,8.225a22.279,22.279,0,0,0,15.383-3.011c2.139-1.412.138-4.878-2.019-3.454a18.562,18.562,0,0,1-12.124,2.616c-3.985-.405-5.986-3.779-7.653-7.037a20.992,20.992,0,0,0-2.386-4.443,7.719,7.719,0,0,0-2.273-1.781c-.523-.271-1.485-.484-1.879-.94-.594-.686,1.338-2.451,1.7-3.163a10.555,10.555,0,0,0,.963-5.5c-.345-4.817-2.595-9.151-3.331-13.882a2.013,2.013,0,0,0-2.46-1.4,2.049,2.049,0,0,0-1.4,2.46Z"/>
<path class="c" d="M172.073,195.494a23.309,23.309,0,0,1,3.534-19.331c4.015-5.925,10.365-9.215,17.249-10.505,7.1-1.331,15.132-.661,21.529,3.287,8.726,5.384,12.963,15.683,12.428,25.676a43.086,43.086,0,0,1-2.936,12.765c-1.875,5-4.34,9.863-2.2,15.231a2.062,2.062,0,0,0,2.461,1.4,2.014,2.014,0,0,0,1.4-2.46,10.238,10.238,0,0,1,.067-7.582c.668-1.935,1.5-3.815,2.208-5.735a47.119,47.119,0,0,0,2.932-12.611c.9-11.119-3.575-22.4-12.71-29.041-7.12-5.174-16.237-6.3-24.757-5.034-7.393,1.1-14.5,4.329-19.324,10.2a27.645,27.645,0,0,0-5.738,24.808c.658,2.487,4.518,1.432,3.857-1.063Z"/>
<path class="c" d="M230.225,192.628c2.6-1.162,5.717-1.241,7.906.8,1.847,1.719,1.956,3.777,2.318,6.191.825,5.487,1.984,12.377,7.848,14.613l-1.4-2.46c-.4,1.139-2.022,1.827-3.177,2.208a15.45,15.45,0,0,1-4.283.823c-4.462.192-9.381-2.821-11.882-6.411-1.461-2.1-4.93-.1-3.454,2.019a18.77,18.77,0,0,0,6.366,5.814c2.8,1.514,5.9,2.748,9.137,2.569,4.134-.227,9.632-1.6,11.15-5.959a2.043,2.043,0,0,0-1.4-2.46c-2.343-.893-3.321-3.769-3.92-5.966-.805-2.958-.955-6.018-1.622-9a10.072,10.072,0,0,0-4.987-6.365c-3.419-1.848-7.188-1.408-10.626.13a2.014,2.014,0,0,0-.717,2.736,2.048,2.048,0,0,0,2.736.717Z"/>
<path class="c" d="M167.125,187.743c4.9,4.209,11.26,7.1,17.313,9.218,2.458.862,4.943,1.658,7.454,2.352a35.045,35.045,0,0,0,8.848,1.6c2.574.024,2.577-3.976,0-4a31.225,31.225,0,0,1-7.949-1.5c-2.4-.668-4.774-1.428-7.125-2.248a65.215,65.215,0,0,1-7.708-3.3,38.769,38.769,0,0,1-8-4.945c-1.943-1.669-4.785,1.147-2.829,2.828Z"/>
<path class="a" d="M86.534,340.373c-3.8-3.115-9-5.687-12.953-8.535a18.957,18.957,0,0,1-3.763,3.571c.731,3.735,6.818,8.747,14.508,8.259a9.025,9.025,0,0,1,2.771-2.821Q86.821,340.609,86.534,340.373Z"/>
<path class="a" d="M167.6,265.561c-.687-1-1.81-2.4-2.329-3.252-.849-1.391-2.017-2.461-2.872-3.875-1.858-3.072-2.608-6.767-5.116-9.443-4.545-4.85-8.885-3.52-3.07,4.309a27.158,27.158,0,0,1-9.52-5.858c-1.471-1.349-8.464-8.887-7.263-1.356l.021.129a.252.252,0,0,0-.144.225c-.11,2.475,1.422,4.84,2.706,6.907l.5.8-2.109-.311a9.341,9.341,0,0,0-2.345.062c-.637,7.946,12.542,18.141,18.808,20.759,0,0,3.873,1.225,8.032-2.219C170.005,266.546,167.6,265.561,167.6,265.561Z"/>
<path class="a" d="M160.6,337.825c-2.061-1.856-5.042-7.367-5.042-7.367-8.594-13.825-13.625-26.329-24.1-39.5-4.749,9.905-12.7,20.013-20.6,27.884-4.166,4.151-7.773,8.512-11.888,12.827-2.912,3.053-7.087,6.982-10.5,10.265-4.168-4.2-11.257-7.321-15.906-11.02,4.482-5.772,8.329-12.726,12.405-19.15,5.654-8.91,11.359-17.04,17.3-25.787,5.291-7.788,11.807-20.14,20.354-24.879a13.282,13.282,0,0,1,12.188-.756c6,2.242,23.855,21.558,26.62,24.555,2.795,3.029,14.046,14.743,16.073,17.264,0,0,5.766,10.455-1.049,24.085S160.6,337.825,160.6,337.825Z"/>
<path class="e" d="M228.349,348.991c-6.144,4.176-14.277,8.194-19.508,9.24-6.576,1.315-18.035-1.813-24.39-1.659-7.407,1.62-24.3-5.555-29.1-9.813,2.585-13.667,10.344-21.889,17.214-33.464,1.072-1.805.262-6.253,1.374-8.107l.728-1.214c-3.66-3.764-6.887-7.348-10.807-11.267-4.761-4.761-8.2-9.635-12.461-14.2,1.707-2.358,12.609-9.943,17.148-13.744,5.031,4.727,9.182,9.354,13.688,14.127l.637-1.045c2.095-4.45,4.809-11.152,7.674-16.285,2.109-3.78,4.51-7.53,6.628-11.377l2.44,2.357c1.026-4.934,7-15.623,11.254-19.268,3.326-3.153,9.346-8.431,11.557-12.349,3.728,2.159,3.609,10.305,4.412,12,.348,1.388,1.905,3.394,3.061,4.754,6.6,7.764,9.886,23.055,12.068,31.3,2.67,10.082,1.8,21.183,1.275,31.591-.574,11.456-1.829,33.346-7.188,41.591C234.767,344.126,231.888,346.585,228.349,348.991Z"/>
<path class="c" d="M172.21,304.178c-1.245,2.315-.67,4.924-1.161,7.4a10.92,10.92,0,0,1-1.744,3.22c-.935,1.493-1.9,2.969-2.87,4.439-3.346,5.062-6.813,10.085-9.335,15.626a50.472,50.472,0,0,0-3.23,9.254c-.356,1.5-.978,3.113.335,4.293a18.5,18.5,0,0,0,2.283,1.677,60.382,60.382,0,0,0,13.306,6.217c4.7,1.622,10.186,3.23,15.188,2.2,2.52-.519,1.454-4.375-1.063-3.858a5.179,5.179,0,0,1-1.209.147,16.6,16.6,0,0,1-1.728-.014,24.115,24.115,0,0,1-3.363-.455,54.342,54.342,0,0,1-8.165-2.38,63.953,63.953,0,0,1-7.5-3.318c-1.034-.541-2.053-1.112-3.04-1.734a16.876,16.876,0,0,1-2.151-1.544l.514,1.946c1.558-8.032,5.346-14.993,9.786-21.769,2.207-3.367,4.481-6.69,6.574-10.13a9.967,9.967,0,0,0,1.528-4.8c.1-1.347-.137-3.207.5-4.391,1.219-2.267-2.233-4.289-3.453-2.019Z"/>
<path class="c" d="M71.954,330.721c-1.473,1.871-3.558,3.085-5.219,4.764a2,2,0,0,0,2.828,2.828c1.661-1.678,3.747-2.893,5.219-4.763a2.178,2.178,0,0,0,.586-1.414,2.037,2.037,0,0,0-.586-1.415,2.013,2.013,0,0,0-1.414-.585,1.933,1.933,0,0,0-1.414.585Z"/>
<path class="c" d="M137.96,259.783a24.3,24.3,0,0,0-2.818-1.365,1.516,1.516,0,0,0-.8-.036,1.486,1.486,0,0,0-.743.237,2.245,2.245,0,0,0-.919,1.2,2.022,2.022,0,0,0,.2,1.541l.313.405a2.009,2.009,0,0,0,.883.514l.12.051-.477-.2a20.54,20.54,0,0,1,2.22,1.113,1.486,1.486,0,0,0,.743.237,2.055,2.055,0,0,0,1.993-.955,2.022,2.022,0,0,0,.2-1.541,2.076,2.076,0,0,0-.92-1.195Z"/>
<path class="c" d="M86.13,339.088a13.507,13.507,0,0,0-2.3,1.926,9.846,9.846,0,0,0-1.6,2.321,2.141,2.141,0,0,0-.2,1.541,2.038,2.038,0,0,0,.92,1.2,2.013,2.013,0,0,0,1.541.2,1.979,1.979,0,0,0,1.195-.919,8.153,8.153,0,0,1,.872-1.422l-.313.4a9.428,9.428,0,0,1,1.684-1.65l-.405.313c.2-.158.414-.31.627-.458a2.143,2.143,0,0,0,.919-1.195,2.045,2.045,0,0,0-.2-1.542,2.02,2.02,0,0,0-1.195-.919,1.98,1.98,0,0,0-1.541.2Z"/>
<path class="c" d="M130.88,293.7c8.942,11.76,15,25.257,22.751,37.765,1.354,2.184,4.815.178,3.454-2.019-7.751-12.508-13.809-26-22.751-37.765a2.066,2.066,0,0,0-2.737-.717,2.013,2.013,0,0,0-.717,2.736Z"/>
<path class="c" d="M150.177,280.119c2.72,2.964,5.208,6.126,7.828,9.176,2.666,3.1,5.591,5.948,8.411,8.907,2.679,2.811,5.316,5.662,8.046,8.424,2.467,2.494,5.049,4.866,7.545,7.331a78.768,78.768,0,0,0,7.379,6.635,19.057,19.057,0,0,0,8.155,4.056c6.524,1.081,10.934-4.8,13.871-9.764,4.4-7.442,8.4-15.455,10.147-23.974.515-2.513-3.339-3.587-3.857-1.063-1.541,7.514-4.905,14.385-8.615,21.041a37.89,37.89,0,0,1-4.261,6.509C203.3,319.15,201.3,321,198.8,320.8c-2.612-.2-5.086-1.9-7.105-3.443a71.46,71.46,0,0,1-6.741-6.114c-4.954-4.891-9.9-9.742-14.691-14.8-2.937-3.1-6.022-6.069-8.832-9.29-2.843-3.26-5.5-6.678-8.426-9.866-1.744-1.9-4.567.933-2.828,2.828Z"/>
<path class="c" d="M202.9,254.2c-8.26,1.176-10.122,10.507-11.062,17.392-.536,3.932-.848,7.98-1.667,11.862-.781,3.7-3.252,6.812-3.552,10.631-.2,2.567,3.8,2.554,4,0a13.463,13.463,0,0,1,1.536-4.394,24.571,24.571,0,0,0,1.829-4.964c.771-3.5,1.031-7.137,1.522-10.681.507-3.664.871-7.51,2.349-10.942a10.428,10.428,0,0,1,2.716-3.761,6.134,6.134,0,0,1,3.392-1.286,2.014,2.014,0,0,0,1.4-2.461,2.052,2.052,0,0,0-2.46-1.4Z"/>
<path class="c" d="M191.657,285.565c-7.5-7.143-14.159-15.114-21.7-22.219-1.872-1.765-4.706,1.058-2.828,2.828,7.539,7.106,14.194,15.077,21.7,22.219,1.865,1.775,4.7-1.049,2.829-2.828Z"/>
<path class="c" d="M167.13,263.346c-2.858,2.385-5.779,4.48-8.9,6.851-2.679,2.034-5.653,4.016-7.934,6.515a2.043,2.043,0,0,0,0,2.828,2.021,2.021,0,0,0,2.829,0,27.89,27.89,0,0,1,3.125-2.781c1.548-1.251,2.771-2.178,4.366-3.386,3.132-2.373,6.328-4.68,9.346-7.2a2.014,2.014,0,0,0,0-2.828,2.043,2.043,0,0,0-2.828,0Z"/>
<path class="c" d="M164.948,258.636s-.332-.434-.159-.2c.146.2-.06-.09-.094-.137-.145-.206-.284-.417-.418-.631-.282-.453-.539-.922-.779-1.4-.46-.912-.859-1.853-1.265-2.79a20.9,20.9,0,0,0-3.3-5.649,11.528,11.528,0,0,0-4.818-3.439,3.453,3.453,0,0,0-4.313,1.437c-1.047,2.182.261,4.72,1.4,6.588a2,2,0,1,0,3.454-2.018c-.269-.442-.526-.89-.755-1.354-.061-.125-.295-.714-.131-.266-.066-.179-.137-.356-.195-.538-.051-.16-.1-.323-.134-.487a1.15,1.15,0,0,0-.045-.225c.015.027.034.523.031.218,0-.12.006-.256-.007-.375-.024-.221-.154.5-.008.135.092-.229-.284.494-.062.158.128-.193-.382.437-.1.164.027-.027-.466.35-.248.205.112-.074.44-.15-.3.122.369-.135-.007.058-.188,0a1.207,1.207,0,0,0,.312,0c.206-.011-.526-.127-.1,0,.126.037.252.073.377.111.475.144-.3-.169.08.031.28.148.556.294.822.467.157.1.307.211.46.319.084.059.27.237-.051-.041.1.085.2.163.3.247.318.271.622.558.915.856.164.168.325.339.479.515.077.087.149.176.224.264.242.283-.072-.119.056.069a28.143,28.143,0,0,1,2.533,4.821,22.9,22.9,0,0,0,3.205,5.647,2.007,2.007,0,0,0,2.828,0,2.056,2.056,0,0,0,0-2.828Z"/>
<path class="c" d="M154.909,251.42c-3.908-1.167-7.151-3.819-10.047-6.593a27.424,27.424,0,0,0-3.44-2.889,4.769,4.769,0,0,0-3.963-1.008c-2.449.741-2.258,3.695-1.957,5.687a2.013,2.013,0,0,0,2.46,1.4,2.051,2.051,0,0,0,1.4-2.46c-.027-.179-.024-.884-.059-1.266-.03-.328-.156.32.031-.137.069-.205.04-.146-.087.179q.157-.267-.162.177.212-.214-.221.151c.173-.1.086-.063-.264.1.282-.088-.6,0-.115.033-.219-.015-.455-.146-.152,0,.141.067.561.294.044,0,.305.176.616.329.91.524.162.107.316.226.477.335q.263.2-.044-.039c.081.064.161.127.241.192.591.486,1.162.993,1.72,1.517,3.562,3.352,7.388,6.533,12.168,7.96,2.472.739,3.528-3.121,1.063-3.857Z"/>
<path class="c" d="M138.887,244.532a2.379,2.379,0,0,0-2.215-.14,2.334,2.334,0,0,0-1.37,2.287,8.851,8.851,0,0,0,.476,2.82,23.6,23.6,0,0,0,2.508,4.857,2,2,0,1,0,3.454-2.019c-.56-.9-1.127-1.8-1.607-2.743-.112-.221-.214-.445-.32-.669-.17-.363.172.436-.011-.032-.052-.132-.1-.265-.148-.4a8.3,8.3,0,0,1-.368-1.514l.071.531a6.831,6.831,0,0,1-.05-1.07l-.071.532q-2.04,1.347-1.136,1.138l-.532.071a.476.476,0,0,1,.136,0l-.532-.071q-.544-.281-.3-.127a2.015,2.015,0,0,0,2.737-.718,2.047,2.047,0,0,0-.718-2.736Z"/>
<path class="c" d="M138.4,251.833a10.4,10.4,0,0,0-2.345.062,2.068,2.068,0,0,0-2,2c-.347,5.283,3.675,10.139,7.2,13.6a42.38,42.38,0,0,0,12.6,8.887,2.068,2.068,0,0,0,2.736-.717,2.015,2.015,0,0,0-.718-2.737,39.135,39.135,0,0,1-11.388-7.877,28.486,28.486,0,0,1-4.756-5.675,9.225,9.225,0,0,1-1.673-5.48l-2,2a10.4,10.4,0,0,1,2.345-.062,2.012,2.012,0,0,0,2-2,2.047,2.047,0,0,0-2-2Z"/>
<path class="c" d="M147.64,254.527c-.781-.539-1.552-1.092-2.308-1.666l-.285-.219c.474.359.074.057-.029-.025q-.318-.251-.632-.507-.664-.543-1.3-1.115a21.138,21.138,0,0,1-2.268-2.329c-.205-.25-.091-.149.031.048-.077-.124-.177-.237-.261-.356q-.183-.261-.347-.532a6.812,6.812,0,0,1-.331-.612c-.081-.171-.1-.41.053.133-.033-.115-.082-.226-.118-.34a2,2,0,0,0-3.857,1.063,13.614,13.614,0,0,0,4.175,5.668,52.472,52.472,0,0,0,5.46,4.243,2.011,2.011,0,0,0,2.736-.717,2.051,2.051,0,0,0-.717-2.737Z"/>
<path class="c" d="M146.108,258.714c-2.7-2.312-4.749-5.25-7.264-7.748a2,2,0,0,0-2.828,2.829c2.514,2.5,4.561,5.436,7.263,7.747a2,2,0,0,0,2.829-2.828Z"/>
<path class="c" d="M137.086,245.577c-5.331-6-10.623-12.031-16.084-17.911l-.405,3.141c3.8-2.709,4.936-7.961,5.006-12.374l-3.414,1.414c9.967,7.761,18.473,17.356,27.068,26.558,1.761,1.885,4.585-.948,2.829-2.828-8.6-9.2-17.1-18.8-27.069-26.559a2.03,2.03,0,0,0-3.414,1.415c-.044,2.779-.533,7.145-3.025,8.92a2.035,2.035,0,0,0-.405,3.141c5.461,5.88,10.754,11.913,16.084,17.911,1.714,1.928,4.534-.909,2.829-2.828Z"/>
<path class="c" d="M128.515,221.092a90.663,90.663,0,0,0,5.973-8.376,47.471,47.471,0,0,0,4.58-7.893l-3.342.883c9.324,11.476,20.474,21.237,31.015,31.55v-2.829c-2.684,2.841-5.433,5.436-7.574,8.74-1.405,2.166,2.057,4.173,3.454,2.018,1.947-3,4.5-5.343,6.949-7.929a2.034,2.034,0,0,0,0-2.829c-10.541-10.312-21.692-20.073-31.016-31.549-1.063-1.309-2.835-.339-3.343.882-.1.248-.205.5-.31.745-.156.368.251-.483.06-.15-.093.162-.17.335-.259.5-.282.521-.591,1.027-.9,1.532-.891,1.457-1.824,2.888-2.768,4.311q-1.5,2.268-3.068,4.5c-.816,1.159-1.6,2.27-2.28,3.071-1.649,1.957,1.167,4.8,2.829,2.829Z"/>
<path class="c" d="M214.591,259.34c.431.164-.158-.1.215.1.167.088.333.177.494.276s.32.2.472.319c-.288-.216.138.125.191.174a8.96,8.96,0,0,1,.826.85,4.946,4.946,0,0,1,.549.748,16.08,16.08,0,0,1,2.075,4.738,27.722,27.722,0,0,1,1.116,9.847,2,2,0,0,0,4,0,31.964,31.964,0,0,0-1.461-11.578c-1.24-3.912-3.392-7.8-7.413-9.329a2.017,2.017,0,0,0-2.461,1.4,2.045,2.045,0,0,0,1.4,2.46Z"/>
<path class="c" d="M201.539,253.068a31.732,31.732,0,0,1,3.367-8.116,47.679,47.679,0,0,1,5.384-8.219,93,93,0,0,1,6.694-6.473,40.077,40.077,0,0,0,7.165-8.331l-2.736.718c1.653,1.025,2.162,3.786,2.523,5.676.216,1.127.365,2.264.553,3.4a14.144,14.144,0,0,0,.6,2.282c1.128,2.957,3.66,5.127,5.315,7.779a46.854,46.854,0,0,1,3.967,8.253,164.507,164.507,0,0,1,5.152,17.5,65.376,65.376,0,0,1,1.963,10.417,101.615,101.615,0,0,1,.238,12.265c-.2,6.507-.565,13.025-1.026,19.519a165.758,165.758,0,0,1-2.1,18.122,63.9,63.9,0,0,1-1.961,8.119A18.956,18.956,0,0,1,234,341.6c.164-.218-.2.238-.266.311-.145.168-.295.332-.447.493-.39.416-.8.812-1.22,1.2a34.7,34.7,0,0,1-2.8,2.293,71.393,71.393,0,0,1-7.405,4.75,67.38,67.38,0,0,1-7.785,3.824,25.248,25.248,0,0,1-6.831,1.989c-6.3.609-12.682-1.079-18.918-1.694a33.815,33.815,0,0,0-3.883-.192c-2.571.044-2.579,4.044,0,4,6.383-.109,12.676,1.681,19.047,1.949,5.92.249,11.2-1.76,16.443-4.339a63.855,63.855,0,0,0,14.957-9.751c3.654-3.345,5.313-7.851,6.5-12.564,3.059-12.158,3.41-24.946,4.055-37.409.437-8.452.759-17.022-.942-25.366a166.012,166.012,0,0,0-4.881-18.129c-2.03-6.231-4.588-12.147-8.769-17.239a18.133,18.133,0,0,1-1.482-2.056,7.643,7.643,0,0,1-.5-.918c-.087-.2-.363-1.224-.2-.574-.215-.843-.359-1.687-.491-2.548a23.02,23.02,0,0,0-2.069-7.528,7.631,7.631,0,0,0-2.686-2.907,2.025,2.025,0,0,0-2.736.717c-3.415,5.889-9.62,9.446-13.8,14.683a56.452,56.452,0,0,0-5.77,8.949,34.481,34.481,0,0,0-3.445,8.463c-.547,2.509,3.308,3.581,3.857,1.063Z"/>
<path class="c" d="M195.968,233.05c-.383-.291.192.182.292.276.183.175.358.359.525.55.1.115.2.234.292.353-.164-.2-.118-.153.009.026q.224.318.426.65a15.544,15.544,0,0,1,.75,1.393c.127.266.245.536.364.806-.068-.155-.095-.233-.014-.03.06.15.121.3.18.452.817,2.087,1.446,4.247,2.421,6.27a2.012,2.012,0,0,0,2.737.718,2.052,2.052,0,0,0,.717-2.737c-.113-.236-.218-.476-.326-.714s.141.358,0,0c-.055-.14-.112-.279-.166-.419-.2-.507-.381-1.019-.563-1.532-.387-1.09-.766-2.184-1.208-3.253a14.28,14.28,0,0,0-4.42-6.264,2,2,0,0,0-2.736.717,2.061,2.061,0,0,0,.717,2.736Z"/>
<path class="c" d="M224.709,231.523c-1.951,1.493-3.659,3.228-5.459,4.892-.411.379-.828.751-1.261,1.1-.033.027-.415.333-.26.211.127-.1-.163.124-.19.144-.238.18-.478.356-.719.531-.994.718-2.006,1.411-2.989,2.145a2.051,2.051,0,0,0-.718,2.736,2.02,2.02,0,0,0,2.736.717c1.99-1.484,4.095-2.818,5.937-4.492.859-.781,1.687-1.6,2.529-2.395.408-.386.818-.769,1.238-1.143q.33-.294.668-.579c.124-.1.25-.208.376-.31.045-.036.382-.3.13-.107a2.055,2.055,0,0,0,.718-2.736,2.02,2.02,0,0,0-2.736-.718Z"/>
<path class="c" d="M68.005,320.831a251.926,251.926,0,0,0-28.122,1.963c-9.436,1.081-19.546,2-28.218,6.145C5.58,331.847.354,337.009.017,344.075c-.289,6.053,3.087,11.819,7.329,15.89a39.531,39.531,0,0,0,9.753,6.506,99.934,99.934,0,0,0,17.17,6.722,146.6,146.6,0,0,0,35.649,5.4,249.055,249.055,0,0,0,36.256-1.387c12.68-1.391,25.264-3.3,38-4.256a335.041,335.041,0,0,1,58.548.5c11.779,1.185,23.553,2.421,35.329,3.63,13.626,1.4,27.252,2.811,40.888,4.106a200.566,200.566,0,0,0,33.435.324c8.752-.627,17.716-1.545,26.157-4.055,7.741-2.3,15.629-7.277,18.1-15.422,2.621-8.643-2.735-17.153-9.051-22.633a44.661,44.661,0,0,0-12.651-7.819,80.853,80.853,0,0,0-10.749-3.091,93.08,93.08,0,0,0-12.022-2.283c-2.557-.27-2.538,3.732,0,4a87.465,87.465,0,0,1,11.6,2.3,71.174,71.174,0,0,1,10.2,2.972c-.458-.189.308.145.319.15.307.145.614.286.919.433q.793.385,1.574.8,1.753.926,3.425,1.994a38.849,38.849,0,0,1,5.577,4.3,23.917,23.917,0,0,1,6.9,10.186c2.475,8.153-3.365,15.207-10.478,18.543-6.968,3.267-15.263,4.212-22.827,5.016a185.7,185.7,0,0,1-36.143.691c-12.03-1.084-24.046-2.343-36.062-3.57q-19.356-1.977-38.71-3.98a358.01,358.01,0,0,0-43.975-2.065c-12.065.249-24.111,1.133-36.1,2.457-11.9,1.314-23.7,3.218-35.672,3.894-23.137,1.308-47.528.237-69.061-9.168-6.7-2.926-13.594-6.421-17.412-12.951-2.616-4.475-3.177-9.763-.017-14.105,4.682-6.435,13.909-8.3,21.231-9.562a280.034,280.034,0,0,1,28.7-3.217c3.948-.266,7.906-.475,11.865-.482,2.573,0,2.578-4,0-4Z"/>
<path class="f" d="M87.687,124.745c1.128,4.669,3.6,8.565,6.369,12.411,1.554,2.158,6.382,8.626,7.147,9.77a6.819,6.819,0,0,1,1.078,1.67c.122.527-.2.8-.564,1.175a19.283,19.283,0,0,1-5.567,3.7,27.652,27.652,0,0,1-8.162,2.73,22.1,22.1,0,0,1-12.958-2.494,1.318,1.318,0,0,1-.745-1.432,39.245,39.245,0,0,1,.306-4.09l.211-2.353a15.328,15.328,0,0,0,.2-2.372c-.26.223-.573.36-.852.558l-.931.658L71.3,146.041l-1.862,1.317c-.31.219-.622.437-.931.658a2.922,2.922,0,0,1-.912.534c-.714.15-1.826-.756-2.417-1.133A16.079,16.079,0,0,1,60.9,143.2a23.913,23.913,0,0,1-3.83-8.217,24.371,24.371,0,0,1-.723-7.226,15.634,15.634,0,0,1,.589-3.55c.342-1.147.465-2.093,1.9-1.827,8.633,1.595,18.261,3.272,26.941,1.393,0,0,1.3-.327,1.57-.431C87.4,123.62,87.687,124.745,87.687,124.745Z"/>
<path class="c" d="M89.315,123.615a86.2,86.2,0,0,1,5.584-10.54,53.793,53.793,0,0,1,6.7-8.744l-.883.514.039-.007-1.541-.2a1.034,1.034,0,0,1,.36.448l-.2-1.541-.009.041.514-.883c-3.171,2.522-5.594,6.068-7.92,9.351-1.257,1.774-2.488,3.569-3.664,5.4a31.25,31.25,0,0,0-2.634,4.623,2.068,2.068,0,0,0,.717,2.736,2.014,2.014,0,0,0,2.737-.717,46.546,46.546,0,0,1,4.812-7.892q1.414-2.061,2.888-4.08c.336-.459.676-.914,1.017-1.369.355-.473-.19.226.132-.171s.656-.811.994-1.209c.655-.769,1.329-1.524,2.033-2.249s1.951-1.485,2.231-2.475c.328-1.159-.51-2.3-1.356-3.012a2.37,2.37,0,0,0-2.173-.655,3.646,3.646,0,0,0-1.675,1.351,57.306,57.306,0,0,0-6.4,8.439,92.414,92.414,0,0,0-6.158,11.781,2.011,2.011,0,0,0,1.4,2.46,2.052,2.052,0,0,0,2.46-1.4Z"/>
<path class="c" d="M85.759,125.277c1.384,5.506,4.552,10.155,7.868,14.666,1.3,1.762,2.6,3.519,3.892,5.281.487.664.975,1.327,1.454,2,.152.212.3.427.451.639.177.246.361.483.542.727l.117.156q.318.609.169-.033l.515-.882c-1.831,2.34-4.964,3.728-7.642,4.84a19.756,19.756,0,0,1-9.282,1.634,20.611,20.611,0,0,1-4.363-.877,18.993,18.993,0,0,1-1.879-.67c-.308-.131-.613-.278-.912-.428l-.329-.169q-.682-.5-.065.44c-.143,0,.723-8.421.706-9.133-.035-1.386-1.724-2.664-3.01-1.727-1.765,1.286-3.6,2.5-5.381,3.762a7.213,7.213,0,0,0-1.117.79c-.306.331-.311.206.1.293a2.148,2.148,0,0,1-.4-.215,25.525,25.525,0,0,1-2.214-1.578,22.028,22.028,0,0,1-6.569-17.929,12.578,12.578,0,0,1,.271-1.467c.049-.2.447-1.107.373-1.333-.178-.55.1-.067.023-.1.179.071-.587.363-.584.378a10.869,10.869,0,0,0,1.793.335,112.617,112.617,0,0,0,14.084,1.85c4.408.232,9.268.179,13.5-1.253l-2.46-1.4c.108.47.227.936.346,1.4.634,2.493,4.493,1.436,3.857-1.063-.119-.467-.238-.934-.346-1.4a2.016,2.016,0,0,0-2.46-1.4c-4.347,1.472-9.317,1.355-13.83,1.021-2.764-.2-5.509-.579-8.243-1.03-1.278-.211-2.554-.437-3.828-.669s-2.7-.692-3.942-.07c-1.934.969-2.262,3.842-2.5,5.746a24.837,24.837,0,0,0,.418,8,24.233,24.233,0,0,0,7.421,13.341c1.763,1.509,4.389,3.728,6.768,2.3s4.687-3.219,6.934-4.856L73,143.464c.069,2.786-.673,5.585-.713,8.378a3.827,3.827,0,0,0,1.039,3.095,11.358,11.358,0,0,0,3.575,1.819,22.984,22.984,0,0,0,16.438.1A32.345,32.345,0,0,0,100.976,153a10.339,10.339,0,0,0,2.932-2.75,3.364,3.364,0,0,0-.59-3.816c-2.008-2.658-3.936-5.385-5.912-8.068-3.217-4.37-6.446-8.809-7.79-14.152C88.989,121.719,85.13,122.776,85.759,125.277Z"/>
<path class="f" d="M339.605,177.155c-.843,3.793-2.783,6.981-4.967,10.134-1.225,1.768-5.034,7.072-5.635,8.009a5.5,5.5,0,0,0-.848,1.367c-.091.428.175.644.474.942a15.59,15.59,0,0,0,4.559,2.913,22.376,22.376,0,0,0,6.642,2.087,17.874,17.874,0,0,0,10.445-2.211,1.064,1.064,0,0,0,.581-1.169,31.648,31.648,0,0,0-.308-3.3l-.206-1.9a12.448,12.448,0,0,1-.2-1.916c.214.177.468.283.7.439l.763.518,1.576,1.073,1.526,1.037c.254.173.509.344.762.519a2.389,2.389,0,0,0,.746.418c.58.11,1.466-.639,1.938-.953a12.985,12.985,0,0,0,3.4-3.474,19.362,19.362,0,0,0,2.976-6.7,19.759,19.759,0,0,0,.477-5.857,12.606,12.606,0,0,0-.53-2.862c-.293-.923-.406-1.686-1.563-1.45-6.959,1.419-14.722,2.919-21.772,1.528,0,0-1.056-.244-1.276-.325C339.82,176.24,339.605,177.155,339.605,177.155Z"/>
<path class="c" d="M341.55,174.8a58.222,58.222,0,0,0-9.4-14.814c-.671-.763-1.435-1.943-2.452-2.227-1.283-.359-2.421.651-3.03,1.675a2.139,2.139,0,0,0-.208,2.011,2.39,2.39,0,0,0,.819.957c-.361-.3.126.12.157.148a24.755,24.755,0,0,1,1.782,1.767q1.175,1.263,2.233,2.625c-.352-.452.123.163.215.283q.276.363.549.729.618.825,1.224,1.661a41.651,41.651,0,0,1,4.653,7.2,2.014,2.014,0,0,0,2.737.718,2.05,2.05,0,0,0,.717-2.737,24.9,24.9,0,0,0-2.163-3.645c-1.018-1.525-2.085-3.018-3.174-4.493a36.972,36.972,0,0,0-6.911-7.714l.919,1.2-.008-.033-.2,1.541q.222-.306.053-.148c.167-.172.194-.2.083-.093l-1.541.2.032,0-.883-.514c1.428,1.5,2.764,3.074,4.046,4.7.413.524-.043-.067.092.119.041.057.083.114.124.172.106.152.209.306.312.461.322.485.633.977.94,1.471a71.384,71.384,0,0,1,4.826,8.8,2.015,2.015,0,0,0,2.737.718,2.05,2.05,0,0,0,.717-2.737Z"/>
<path class="c" d="M337.676,176.623c-.942,4.026-3.189,7.43-5.543,10.766-1.6,2.272-3.22,4.536-4.806,6.821a4.828,4.828,0,0,0-1.172,2.455,3.513,3.513,0,0,0,1.521,2.783,21.438,21.438,0,0,0,5.941,3.432,19.619,19.619,0,0,0,13.66.953c1.962-.6,5.022-1.487,5.5-3.77a12.624,12.624,0,0,0-.205-3.921,36.637,36.637,0,0,1-.427-4.035l-3.009,1.727c1.818,1.2,3.589,2.508,5.438,3.666,1.831,1.146,3.352.294,4.923-.848a19.087,19.087,0,0,0,6.8-10.508,21.634,21.634,0,0,0,.734-6.568,11.748,11.748,0,0,0-1.293-5.478c-1.274-2.009-3.678-1.143-5.559-.772-2.234.441-4.478.861-6.738,1.146-4.216.533-8.925.892-13.047-.386a2.018,2.018,0,0,0-2.461,1.4c-.08.381-.17.761-.259,1.14-.587,2.5,3.269,3.572,3.857,1.063.089-.379.179-.758.259-1.139l-2.46,1.4a31.011,31.011,0,0,0,11.343.811c2.182-.168,4.354-.468,6.512-.826,1.058-.176,2.112-.369,3.165-.572.669-.128,2.375-.742,2.883-.551l-.883-.514a6.868,6.868,0,0,1,.6,2.27,16.3,16.3,0,0,1,.016,3.734,17.5,17.5,0,0,1-2.214,6.91,13.328,13.328,0,0,1-4.24,4.669,3.146,3.146,0,0,1-.3.188q-.514.261.492.062c0-.076-.551-.38-.608-.419-.508-.347-1.018-.691-1.526-1.037q-1.7-1.157-3.418-2.289a2.016,2.016,0,0,0-3.009,1.727,35.315,35.315,0,0,0,.4,3.816c.062.55.137,1.1.2,1.65.037.335.068.67.087,1.006.026.463-.185.717.229.369.664-.558-.276-.012-.435.07-.223.114-.448.225-.677.327a14.552,14.552,0,0,1-1.543.57,16.138,16.138,0,0,1-3.5.732,15.827,15.827,0,0,1-7.172-1.194c-2.115-.825-4.6-1.877-6.071-3.682l.515.882c.163.393-.141.626.281.036.1-.14.2-.279.3-.421.115-.166.225-.335.339-.5.394-.574.8-1.141,1.2-1.709,1.022-1.448,2.051-2.891,3.074-4.338,2.626-3.713,5.117-7.546,6.167-12.034C342.12,175.182,338.264,174.113,337.676,176.623Z"/>
<path class="f" d="M334.649,340.893a20.982,20.982,0,0,0,4,7.167c.958,1.237,3.929,4.941,4.4,5.6a4.014,4.014,0,0,1,.668.96c.083.307-.1.475-.308.7a11.325,11.325,0,0,1-3.2,2.292,16.24,16.24,0,0,1-4.743,1.773,13,13,0,0,1-7.67-1.2c-.4-.2-.451-.424-.468-.827a23.138,23.138,0,0,1,.1-2.411l.076-1.388a9,9,0,0,0,.068-1.4c-.148.136-.329.223-.489.345l-.534.406-1.1.84-1.068.812c-.178.136-.356.27-.533.407a1.728,1.728,0,0,1-.526.332c-.417.1-1.089-.407-1.444-.617a9.443,9.443,0,0,1-2.6-2.39,14.08,14.08,0,0,1-2.421-4.753,14.375,14.375,0,0,1-.574-4.234,9.231,9.231,0,0,1,.274-2.1c.177-.681.23-1.24,1.079-1.113,5.109.761,10.8,1.549,15.87.266,0,0,.757-.219.914-.286C334.458,340.238,334.649,340.893,334.649,340.893Z"/>
<path class="c" d="M336.367,340.454c.1-.263.207-.523.311-.784l-.044.1c.033-.076.066-.152.1-.228.056-.129.113-.257.171-.385q.393-.871.818-1.729.779-1.579,1.63-3.121a29.925,29.925,0,0,1,3.61-5.1l-.882.514.023,0-1.541-.2q.291.173-.035-.037-.219-.306-.025-.017l-.2-1.541,0,.024.514-.883a26.885,26.885,0,0,0-4.616,5.843,34.845,34.845,0,0,0-3.685,6.478,2.008,2.008,0,0,0,1.4,2.46,2.056,2.056,0,0,0,2.46-1.4c.165-.433-.215.436.007-.014.081-.162.157-.326.239-.487.218-.424.451-.84.689-1.252.53-.918,1.089-1.818,1.66-2.71q.762-1.192,1.558-2.363c.185-.271.371-.542.561-.81.062-.086.123-.172.186-.257q.127-.174.26-.346c-.293.386.058-.069.094-.115.372-.464.756-.92,1.159-1.358.5-.545,1.179-1,1.378-1.75a2.751,2.751,0,0,0-1.44-2.844,2.162,2.162,0,0,0-1.7-.275,2.991,2.991,0,0,0-1.448,1.188,34.77,34.77,0,0,0-3.606,5.116,56.015,56.015,0,0,0-3.453,7.214,2.008,2.008,0,0,0,1.4,2.46,2.056,2.056,0,0,0,2.46-1.4Z"/>
<path class="c" d="M332.721,341.425c1,3.38,3.011,6.15,5.166,8.881.791,1,1.588,2,2.38,3a9.632,9.632,0,0,1,1.726,2.317l-.273-1.009,0,.268.273-1.009a6.547,6.547,0,0,1-2.617,1.915,15.776,15.776,0,0,1-3.611,1.487,9.726,9.726,0,0,1-7.2-.98l.718.717q.078.724.037-.08c0-.261.009-.522.026-.783.02-.4.055-.8.079-1.206.055-.922.18-1.865.144-2.786-.053-1.368-1.716-2.687-3.009-1.727a33.5,33.5,0,0,1-4.253,3.142l1.009-.273c.394-.008.2.073-.114-.143-.214-.144-.443-.264-.655-.411a7.362,7.362,0,0,1-1.227-1.113,11.674,11.674,0,0,1-2.031-3.169,12.373,12.373,0,0,1-.966-3.731c-.095-.994-.149-2.793.307-3.46l-.718.717q-.691.091-.174.126l.647.095q.544.078,1.09.153c.839.116,1.679.227,2.52.324,1.563.18,3.133.311,4.707.343a23.457,23.457,0,0,0,8.242-1.029l-2.461-1.4c.074.273.153.545.233.817.719,2.466,4.58,1.417,3.857-1.063-.079-.272-.159-.544-.233-.818a2.017,2.017,0,0,0-2.46-1.4c-3.6,1.285-7.711,1-11.439.594-1.145-.124-2.285-.28-3.425-.447a4.482,4.482,0,0,0-2.952.121c-1.637.912-1.782,3.5-1.789,5.131a15.986,15.986,0,0,0,4.771,11.481c1.14,1.067,3.093,2.675,4.8,2.205a7.48,7.48,0,0,0,2.248-1.482q1.236-.941,2.482-1.863l-3.009-1.726c.077,1.984-.7,4.284-.079,6.216.653,2.022,3.8,2.647,5.627,2.94a16.438,16.438,0,0,0,12.686-3.649,4.914,4.914,0,0,0,1.843-2.25c.326-1.184-.331-2.085-1.013-2.957.228.291-.152-.2-.186-.244q-.35-.453-.7-.9-.7-.888-1.4-1.771c-2.246-2.832-4.73-5.65-5.773-9.18C335.85,337.9,331.989,338.947,332.721,341.425Z"/>
<path class="c" d="M133.524,291.522c.042-.36.079-.719.085-1.082a13.059,13.059,0,0,0-.221-2.35,1.928,1.928,0,0,0-1.663-1.433,1.522,1.522,0,0,0-.8.036,2.03,2.03,0,0,0-1.2.919l-.2.478a2,2,0,0,0,0,1.063c.021.128.041.256.058.384l-.071-.532a10,10,0,0,1,.006,2.517,2.228,2.228,0,0,0,.585,1.414,2,2,0,0,0,2.829,0l.313-.4a1.987,1.987,0,0,0,.273-1.009Z"/>
<path class="g" d="M45.467,343.336c-2.859-3.5-1.477-7.021,4.115-7.835,7.969-1.161,13.282-.31,20.183-.43.426,3.869,6.992,9.4,15.237,8.54,3.059,4.405.218,10.038-3.829,10.087-8.515.1-23.249-3.7-27.23-5.1C49.851,347.145,47.028,345.245,45.467,343.336Z"/>
<path class="c" d="M83.4,344.81c1.179,1.913,1.293,4.625-.556,6.2-1.55,1.321-4.4.638-6.261.454a108.362,108.362,0,0,1-15.967-3.027c-4.224-1.077-8.862-2.183-12.276-5.047a8.131,8.131,0,0,1-1.869-2.094c-.072-.125-.143-.252-.206-.382-.276-.57.069.3-.108-.279a4.622,4.622,0,0,1-.142-.556c.076.432,0-.267.007-.365a1.618,1.618,0,0,1,.376-.8,4.36,4.36,0,0,1,2.014-1.12c3.357-1,7.209-.934,10.679-.911,3.558.024,7.112.239,10.671.187,2.572-.037,2.579-4.037,0-4-3.691.054-7.376-.181-11.066-.189s-7.786,0-11.347,1.056a7.16,7.16,0,0,0-5.077,4.316c-.742,2.258.238,4.577,1.65,6.334,3.456,4.3,9.23,6.015,14.36,7.376A114.6,114.6,0,0,0,76.914,355.5c3.333.312,6.852.608,9.266-2.184a8.919,8.919,0,0,0,.677-10.521c-1.348-2.188-4.809-.181-3.454,2.019Z"/>
<path class="c" d="M85.02,341.609a14.712,14.712,0,0,1-5.164-.322,13.12,13.12,0,0,1-4.221-1.787c-.305-.192-.6-.4-.894-.607-.078-.056-.155-.113-.231-.172.13.1.141.106.033.02s-.238-.2-.355-.3a13.056,13.056,0,0,1-1.454-1.5c.172.207.081.113-.03-.046-.089-.128-.178-.255-.262-.387-.147-.23-.272-.469-.4-.707-.07-.127-.167-.509-.026-.032-.038-.126-.095-.25-.134-.376-.057-.18-.195-.972-.113-.321a2.065,2.065,0,0,0-2-2,2.012,2.012,0,0,0-2,2c.417,3.319,2.822,5.879,5.517,7.667a18.269,18.269,0,0,0,11.738,2.871,2.055,2.055,0,0,0,2-2,2.014,2.014,0,0,0-2-2Z"/>
<path class="c" d="M198.456,243.027c-2.608,6.163-6.4,11.693-9.64,17.52-2.922,5.251-5.128,10.852-7.674,16.285a2.056,2.056,0,0,0,.717,2.736,2.017,2.017,0,0,0,2.737-.717c2.546-5.433,4.754-11.033,7.674-16.285,3.24-5.829,7.032-11.357,9.64-17.52a2.068,2.068,0,0,0-.717-2.736,2.014,2.014,0,0,0-2.737.717Z"/>
<path class="c" d="M118.388,324.237c7.72,0,15.471-.2,23.187.091,2.574.1,2.57-3.9,0-4-7.716-.287-15.467-.092-23.187-.091-2.574,0-2.578,4,0,4Z"/>
<path class="c" d="M135.142,258.418c-12.89-5.174-22.573,7.828-28.729,17.174-3.377,5.128-6.681,10.286-10.15,15.354-4.211,6.151-8.421,12.3-12.44,18.584-4.359,6.81-8.241,13.963-13.189,20.378a1.991,1.991,0,0,0,.313,2.424c5.063,3.976,11.3,6.465,15.906,11.02a2.035,2.035,0,0,0,2.828,0c2.98-2.862,5.992-5.693,8.9-8.625,3.1-3.118,5.981-6.433,8.94-9.679,2.979-3.266,6.171-6.325,9.131-9.607a124.285,124.285,0,0,0,8.409-10.386,87.984,87.984,0,0,0,7.69-12.6c1.135-2.3-2.314-4.329-3.454-2.019A97.637,97.637,0,0,1,114.734,311.6c-2.917,3.305-6.1,6.35-9.086,9.586s-5.864,6.582-8.936,9.743c-3.2,3.289-6.552,6.421-9.859,9.6h2.828c-4.638-4.593-10.822-7.029-15.906-11.021l.313,2.424c4.233-5.488,7.659-11.528,11.31-17.4,3.8-6.116,7.842-12.081,11.9-18.027,3.5-5.13,7.022-10.241,10.364-15.478,2.974-4.659,5.992-9.371,9.82-13.388a23.747,23.747,0,0,1,6.8-5.246,11.789,11.789,0,0,1,9.793-.11,2.014,2.014,0,0,0,2.46-1.4,2.049,2.049,0,0,0-1.4-2.46Z"/>
</g>
<g id="SVGRepo_iconCarrier">
<defs>
<style>.a{fill:#ffffff;}.b{fill:#ef8561;}.c{fill:#211715;}.d{fill:#ad7b59;}.e{fill:#90d954;}.f{fill:#fbd960;}.g{fill:#8c725a;}</style>
</defs>
<path class="a" d="M160.894,244.176c2.5-3.905,3.884-4.741,7.261-8.335-10.653-10.434-21.743-20.1-31.015-31.549l-.378.907c-.759,1.825-7.577,12.034-9.661,14.479l28.163,34.572Z"/>
<path class="b" d="M150.671,244.991c-7.889-8.445-18.347-19.8-27.068-26.558-.025,3.89-1.313,8.843-4.016,10.647,5.471,5.883,10.751,11.911,16.084,17.911l13.667,13.778Z"/>
<path class="b" d="M245.37,28.1c-1.315-9.113-14.8-14.98-23.017-6.839C221.64,32.2,241.214,35.6,245.37,28.1Z"/>
<path class="a" d="M200.752,198.91c-4.431.015-13.294-3-16.011-3.957-4.11-1.446-11.248-4.737-15.336-7.915a21.558,21.558,0,0,0,.686,8.788,31.825,31.825,0,0,0,1.539,5.3c1.187,3.99,2.846,9.524-.123,12.675a3.864,3.864,0,0,0-1.121,2.237c-.215,2.255,1.768,2.578,3.194,3.364a6.353,6.353,0,0,1,2.22,2.112c.819,2.1,3.018,6.7,5.227,8.821a8.545,8.545,0,0,0,5.419,2.461,22.059,22.059,0,0,0,10.622-1.4c3.355,2.576,4.169,7.9,5.872,11.393,0,0,1.655,7.2,17.213,3.463,14.815-3.555,3.457-24.164,3.457-24.164a14.329,14.329,0,0,1-.536-1.889,8.021,8.021,0,0,1-.2-3.681c-5.618-1.78-10.8-5.966-14.381-8.941a12.186,12.186,0,0,0,.484-7.507c-.441-1.662-1.436-3.389-3.1-3.8a3.684,3.684,0,0,0-3.176.843,5.364,5.364,0,0,0-1.353,1.779C201.155,198.9,200.958,198.909,200.752,198.91Z"/>
<path class="c" d="M298.3,145.646c0,16.624.139,33.248.2,49.872.049,14.122-.012,28.246.145,42.368q.224,20.2.919,40.385c.516,14.4,1.205,28.816,2.539,43.169.547,5.878,1.2,11.757,2.159,17.583a55.466,55.466,0,0,0,2.828,11.633,18.9,18.9,0,0,0,.969,2.112c1.246,2.252,4.7.237,3.453-2.019q-.213-.385-.4-.785c-.076-.161-.146-.324-.217-.487.209.477.03.071-.055-.154q-.42-1.115-.757-2.257c-.573-1.939-1.009-3.918-1.393-5.9-1.054-5.443-1.646-10.408-2.215-15.917-1.448-14.021-2.174-28.12-2.732-42.2-.548-13.828-.873-27.665-1.055-41.5-.169-12.892-.134-25.784-.167-38.677-.044-17.321-.179-34.642-.213-51.963q0-2.628,0-5.257c0-2.574-4-2.579-4,0Z"/>
<path class="c" d="M237.139,355.286c1.656-3.391,2.332-7.251,2.946-10.942.959-5.769,1.558-11.6,2.056-17.427,1.3-15.175,1.863-30.415,2.278-45.637.413-15.136.608-30.277.689-45.418.063-11.761-.024-23.523.108-35.283.2-18.027.508-36.049.758-54.075.016-1.128.03-2.256.031-3.384,0-2.574-4-2.578-4,0-.011,15.808-.587,31.617-.688,47.426q-.127,20.093-.186,40.183c-.053,14.691-.208,29.382-.548,44.069-.359,15.485-.873,30.981-1.994,46.433-.239,3.3-.51,6.6-.832,9.894q-.216,2.2-.464,4.393-.12,1.04-.247,2.076c-.042.335-.084.671-.128,1.006-.025.2-.051.395-.078.593-.057.437.032-.226-.033.247a66.166,66.166,0,0,1-2.544,12.384c-.114.331-.243.656-.364.985-.172.466.17-.367,0,.01-.07.15-.137.3-.21.448-1.125,2.3,2.323,4.334,3.454,2.019Z"/>
<path class="c" d="M260.184,69.425c-4.839-8.909-18.525-9.612-25.036-2.273a15.146,15.146,0,0,0-2.26,3.283c-.7,1.422-.133,2.751.588,4.061A10.451,10.451,0,0,0,238,78.746a18.1,18.1,0,0,0,12.7.793c4.157-1.164,8.853-3.966,9.686-8.573a2.054,2.054,0,0,0-1.4-2.46,2.018,2.018,0,0,0-2.461,1.4,6.8,6.8,0,0,1-.277,1.06c-.122.349.084-.136-.086.195-.1.192-.2.381-.315.565a3.012,3.012,0,0,1-.481.66,11.32,11.32,0,0,1-.991.968,13.189,13.189,0,0,1-4.3,2.2c-3.373,1.037-7.39,1.166-10.348-.4a6.324,6.324,0,0,1-3.322-3.96l-.2,1.541a11.651,11.651,0,0,1,10.529-6.616c4-.029,8.052,1.757,9.994,5.332C257.959,73.706,261.414,71.69,260.184,69.425Z"/>
<path class="c" d="M247.3,27.565c-1.675-10.659-15.858-15.521-24.278-9.455-1.348.971-2.68,1.9-2.685,3.7a10.026,10.026,0,0,0,.467,3.09,11.127,11.127,0,0,0,3.342,4.961,18.924,18.924,0,0,0,11.628,4.246c4.206.149,9.091-1.1,11.325-5,1.282-2.237-2.173-4.254-3.454-2.019a4.7,4.7,0,0,1-1.2,1.4c-.023.017-.614.4-.863.532-.164.089-.331.172-.5.251-.012.006-.3.13-.109.051s-.175.064-.207.076a12.2,12.2,0,0,1-5.209.7c-3.41-.163-7.206-1.432-9.535-3.989a6.415,6.415,0,0,1-1.665-4.851l-.586,1.414a11.623,11.623,0,0,1,12.152-2.536,11.09,11.09,0,0,1,7.522,8.493,2.014,2.014,0,0,0,2.46,1.4A2.049,2.049,0,0,0,247.3,27.565Z"/>
<path class="c" d="M252.825,30.069a128.917,128.917,0,0,0,10.454,25.484,162.575,162.575,0,0,0,17.266,26.8A87.409,87.409,0,0,0,291.8,94.186c1.947,1.664,4.789-1.152,2.828-2.829-7.485-6.4-13.593-14.335-18.967-22.541A171.257,171.257,0,0,1,261.314,42.1a101.108,101.108,0,0,1-4.631-13.1c-.672-2.482-4.532-1.429-3.858,1.063Z"/>
<path class="c" d="M184.821.971c-5.09,8.827-3.458,21.155,4.46,27.776l1.414-3.414c-5.884.156-10.74,3.973-13.821,8.766a29.913,29.913,0,0,0-4.3,18.744c.832,8.911,4.3,18.213,10.956,24.415a27.58,27.58,0,0,0,17.459,7.182l-1.727-3.009c-5.97,8.452-5.572,20.2-.3,28.895,5.315,8.771,15.964,14.22,25.957,15.271a24.91,24.91,0,0,0,15.805-3.314l-3.01-1.727c.2,10.472,8.236,18.963,17.626,22.615a35.036,35.036,0,0,0,12.444,1.925,45.677,45.677,0,0,0,14.412-2.077c4.41-1.456,9.1-3.979,11.087-8.419h-3.454c3.542,4.632,10.376,6.174,15.874,6.731,6.018.609,13.007-.617,17.967-4.227a2.058,2.058,0,0,0,.717-2.736,2.015,2.015,0,0,0-2.736-.718c-4.27,3.108-10.058,4.155-15.249,3.744a30.823,30.823,0,0,1-7.777-1.668c-1.831-.646-4.223-1.682-5.342-3.145-.8-1.045-2.768-1.533-3.454,0-1.394,3.115-4.407,5-7.628,6.206a39.619,39.619,0,0,1-12.622,2.285,36.876,36.876,0,0,1-11.543-1.2,25.265,25.265,0,0,1-9.465-5.482c-4-3.605-6.751-8.357-6.857-13.833a2.017,2.017,0,0,0-3.009-1.727c-7.536,4.716-17.364,3.212-24.922-.666-3.943-2.024-7.85-4.768-10.434-8.43a24.428,24.428,0,0,1-4.383-11.979,21.444,21.444,0,0,1,3.754-14.3c.936-1.325-.344-2.928-1.727-3.01a23.291,23.291,0,0,1-13.485-5,28.541,28.541,0,0,1-7.7-10.413,40.208,40.208,0,0,1-3.084-10.861c-.023-.163-.028-.194-.08-.655q-.063-.561-.108-1.123a30.15,30.15,0,0,1,.01-4.965,25.2,25.2,0,0,1,2.285-8.6c2.223-4.673,6.313-9.333,11.863-9.48,1.6-.042,2.812-2.245,1.414-3.414-6.562-5.488-8.092-15.545-3.834-22.929,1.288-2.234-2.167-4.251-3.454-2.019Z"/>
<path class="d" d="M241.952,196.262c-.595-3.738-5.493-8.737-12.736-5.361l-.4.179a33.469,33.469,0,0,0-1.081-7.073,30.05,30.05,0,0,0-9.111-14.44c-11.74-10-27.375-5.7-29.595-5.062-.457.132-1,.29-1.606.49a26.033,26.033,0,0,0-7.835,4.092,27.188,27.188,0,0,0-9.994,16.531c-.059.408-.112.8-.158,1.189a71.484,71.484,0,0,0,15.309,8.146c2.845,1,12.424,4.259,16.6,3.934a5.319,5.319,0,0,1,1.35-1.779,3.684,3.684,0,0,1,3.176-.843c1.669.414,2.664,2.141,3.1,3.8a12.186,12.186,0,0,1-.484,7.507c3.586,2.975,8.766,7.164,14.385,8.945a37.3,37.3,0,0,1,2.429-7.281c.068-.182.147-.387.224-.59l.3.748a16.71,16.71,0,0,0,5.869,5.211c2.44,1.254,4.844,2.3,7.659,2.194,2.22-.078,8.41-1.062,9.469-4.5C243.492,210.4,242.868,201.943,241.952,196.262Z"/>
<path class="c" d="M208.319,210.014c4.042,3.289,8.294,6.368,13.23,8.166a2.011,2.011,0,0,0,2.46-1.4,2.053,2.053,0,0,0-1.4-2.461,23.219,23.219,0,0,1-3.062-1.376c-1.082-.57-2.131-1.2-3.154-1.869-.963-.63-1.9-1.3-2.826-1.987q-.363-.272-.723-.548c.166.128.013.009-.066-.052l-.307-.241q-.667-.526-1.326-1.064a2.05,2.05,0,0,0-2.829,0,2.024,2.024,0,0,0,0,2.829Z"/>
<path class="c" d="M202.83,200.489a3.939,3.939,0,0,1,1.278-1.967,1.6,1.6,0,0,1,1.445-.267c-.236-.093.251.143.3.179-.181-.128.253.247.258.252a3.976,3.976,0,0,1,.575.895,8.6,8.6,0,0,1,.6,2.142,10.43,10.43,0,0,1-3.337,9,2,2,0,0,0,2.828,2.828,14.327,14.327,0,0,0,4.1-14.12c-.746-2.656-2.645-5.115-5.6-5.245-3.175-.139-5.369,2.5-6.3,5.244a2,2,0,0,0,3.857,1.063Z"/>
<path class="c" d="M178.078,225.921a9.773,9.773,0,0,0,1.834-.541,9.6,9.6,0,0,0,1.786-.89,6.393,6.393,0,0,0,2-1.973,2.071,2.071,0,0,0,.2-1.541,2,2,0,0,0-3.655-.478,2.619,2.619,0,0,1-.174.256l.313-.405a4.481,4.481,0,0,1-.8.781l.405-.313a7.092,7.092,0,0,1-1.55.882l.478-.2a9.8,9.8,0,0,1-1.9.567,2.021,2.021,0,0,0-1.2.919,2,2,0,0,0,.718,2.737,2.227,2.227,0,0,0,1.541.2Z"/>
<path class="c" d="M177.171,205.858c-.031,1.322.954,4.077,3.219,3.721,2.9-.8,2.15-4.253.743-5.59C179.982,202.894,177.479,202.986,177.171,205.858Z"/>
<path class="c" d="M167.952,195.135c.686,4.41,2.942,8.516,3.2,13a7.932,7.932,0,0,1-.222,2.7,6.921,6.921,0,0,1-1.394,2.227,4.875,4.875,0,0,0-.2,6.019c1.113,1.319,2.858,1.519,4.075,2.659,1.145,1.071,1.69,3.2,2.487,4.7,2.082,3.895,4.9,7.512,9.531,8.225a22.279,22.279,0,0,0,15.383-3.011c2.139-1.412.138-4.878-2.019-3.454a18.562,18.562,0,0,1-12.124,2.616c-3.985-.405-5.986-3.779-7.653-7.037a20.992,20.992,0,0,0-2.386-4.443,7.719,7.719,0,0,0-2.273-1.781c-.523-.271-1.485-.484-1.879-.94-.594-.686,1.338-2.451,1.7-3.163a10.555,10.555,0,0,0,.963-5.5c-.345-4.817-2.595-9.151-3.331-13.882a2.013,2.013,0,0,0-2.46-1.4,2.049,2.049,0,0,0-1.4,2.46Z"/>
<path class="c" d="M172.073,195.494a23.309,23.309,0,0,1,3.534-19.331c4.015-5.925,10.365-9.215,17.249-10.505,7.1-1.331,15.132-.661,21.529,3.287,8.726,5.384,12.963,15.683,12.428,25.676a43.086,43.086,0,0,1-2.936,12.765c-1.875,5-4.34,9.863-2.2,15.231a2.062,2.062,0,0,0,2.461,1.4,2.014,2.014,0,0,0,1.4-2.46,10.238,10.238,0,0,1,.067-7.582c.668-1.935,1.5-3.815,2.208-5.735a47.119,47.119,0,0,0,2.932-12.611c.9-11.119-3.575-22.4-12.71-29.041-7.12-5.174-16.237-6.3-24.757-5.034-7.393,1.1-14.5,4.329-19.324,10.2a27.645,27.645,0,0,0-5.738,24.808c.658,2.487,4.518,1.432,3.857-1.063Z"/>
<path class="c" d="M230.225,192.628c2.6-1.162,5.717-1.241,7.906.8,1.847,1.719,1.956,3.777,2.318,6.191.825,5.487,1.984,12.377,7.848,14.613l-1.4-2.46c-.4,1.139-2.022,1.827-3.177,2.208a15.45,15.45,0,0,1-4.283.823c-4.462.192-9.381-2.821-11.882-6.411-1.461-2.1-4.93-.1-3.454,2.019a18.77,18.77,0,0,0,6.366,5.814c2.8,1.514,5.9,2.748,9.137,2.569,4.134-.227,9.632-1.6,11.15-5.959a2.043,2.043,0,0,0-1.4-2.46c-2.343-.893-3.321-3.769-3.92-5.966-.805-2.958-.955-6.018-1.622-9a10.072,10.072,0,0,0-4.987-6.365c-3.419-1.848-7.188-1.408-10.626.13a2.014,2.014,0,0,0-.717,2.736,2.048,2.048,0,0,0,2.736.717Z"/>
<path class="c" d="M167.125,187.743c4.9,4.209,11.26,7.1,17.313,9.218,2.458.862,4.943,1.658,7.454,2.352a35.045,35.045,0,0,0,8.848,1.6c2.574.024,2.577-3.976,0-4a31.225,31.225,0,0,1-7.949-1.5c-2.4-.668-4.774-1.428-7.125-2.248a65.215,65.215,0,0,1-7.708-3.3,38.769,38.769,0,0,1-8-4.945c-1.943-1.669-4.785,1.147-2.829,2.828Z"/>
<path class="a" d="M86.534,340.373c-3.8-3.115-9-5.687-12.953-8.535a18.957,18.957,0,0,1-3.763,3.571c.731,3.735,6.818,8.747,14.508,8.259a9.025,9.025,0,0,1,2.771-2.821Q86.821,340.609,86.534,340.373Z"/>
<path class="a" d="M167.6,265.561c-.687-1-1.81-2.4-2.329-3.252-.849-1.391-2.017-2.461-2.872-3.875-1.858-3.072-2.608-6.767-5.116-9.443-4.545-4.85-8.885-3.52-3.07,4.309a27.158,27.158,0,0,1-9.52-5.858c-1.471-1.349-8.464-8.887-7.263-1.356l.021.129a.252.252,0,0,0-.144.225c-.11,2.475,1.422,4.84,2.706,6.907l.5.8-2.109-.311a9.341,9.341,0,0,0-2.345.062c-.637,7.946,12.542,18.141,18.808,20.759,0,0,3.873,1.225,8.032-2.219C170.005,266.546,167.6,265.561,167.6,265.561Z"/>
<path class="a" d="M160.6,337.825c-2.061-1.856-5.042-7.367-5.042-7.367-8.594-13.825-13.625-26.329-24.1-39.5-4.749,9.905-12.7,20.013-20.6,27.884-4.166,4.151-7.773,8.512-11.888,12.827-2.912,3.053-7.087,6.982-10.5,10.265-4.168-4.2-11.257-7.321-15.906-11.02,4.482-5.772,8.329-12.726,12.405-19.15,5.654-8.91,11.359-17.04,17.3-25.787,5.291-7.788,11.807-20.14,20.354-24.879a13.282,13.282,0,0,1,12.188-.756c6,2.242,23.855,21.558,26.62,24.555,2.795,3.029,14.046,14.743,16.073,17.264,0,0,5.766,10.455-1.049,24.085S160.6,337.825,160.6,337.825Z"/>
<path class="e" d="M228.349,348.991c-6.144,4.176-14.277,8.194-19.508,9.24-6.576,1.315-18.035-1.813-24.39-1.659-7.407,1.62-24.3-5.555-29.1-9.813,2.585-13.667,10.344-21.889,17.214-33.464,1.072-1.805.262-6.253,1.374-8.107l.728-1.214c-3.66-3.764-6.887-7.348-10.807-11.267-4.761-4.761-8.2-9.635-12.461-14.2,1.707-2.358,12.609-9.943,17.148-13.744,5.031,4.727,9.182,9.354,13.688,14.127l.637-1.045c2.095-4.45,4.809-11.152,7.674-16.285,2.109-3.78,4.51-7.53,6.628-11.377l2.44,2.357c1.026-4.934,7-15.623,11.254-19.268,3.326-3.153,9.346-8.431,11.557-12.349,3.728,2.159,3.609,10.305,4.412,12,.348,1.388,1.905,3.394,3.061,4.754,6.6,7.764,9.886,23.055,12.068,31.3,2.67,10.082,1.8,21.183,1.275,31.591-.574,11.456-1.829,33.346-7.188,41.591C234.767,344.126,231.888,346.585,228.349,348.991Z"/>
<path class="c" d="M172.21,304.178c-1.245,2.315-.67,4.924-1.161,7.4a10.92,10.92,0,0,1-1.744,3.22c-.935,1.493-1.9,2.969-2.87,4.439-3.346,5.062-6.813,10.085-9.335,15.626a50.472,50.472,0,0,0-3.23,9.254c-.356,1.5-.978,3.113.335,4.293a18.5,18.5,0,0,0,2.283,1.677,60.382,60.382,0,0,0,13.306,6.217c4.7,1.622,10.186,3.23,15.188,2.2,2.52-.519,1.454-4.375-1.063-3.858a5.179,5.179,0,0,1-1.209.147,16.6,16.6,0,0,1-1.728-.014,24.115,24.115,0,0,1-3.363-.455,54.342,54.342,0,0,1-8.165-2.38,63.953,63.953,0,0,1-7.5-3.318c-1.034-.541-2.053-1.112-3.04-1.734a16.876,16.876,0,0,1-2.151-1.544l.514,1.946c1.558-8.032,5.346-14.993,9.786-21.769,2.207-3.367,4.481-6.69,6.574-10.13a9.967,9.967,0,0,0,1.528-4.8c.1-1.347-.137-3.207.5-4.391,1.219-2.267-2.233-4.289-3.453-2.019Z"/>
<path class="c" d="M71.954,330.721c-1.473,1.871-3.558,3.085-5.219,4.764a2,2,0,0,0,2.828,2.828c1.661-1.678,3.747-2.893,5.219-4.763a2.178,2.178,0,0,0,.586-1.414,2.037,2.037,0,0,0-.586-1.415,2.013,2.013,0,0,0-1.414-.585,1.933,1.933,0,0,0-1.414.585Z"/>
<path class="c" d="M137.96,259.783a24.3,24.3,0,0,0-2.818-1.365,1.516,1.516,0,0,0-.8-.036,1.486,1.486,0,0,0-.743.237,2.245,2.245,0,0,0-.919,1.2,2.022,2.022,0,0,0,.2,1.541l.313.405a2.009,2.009,0,0,0,.883.514l.12.051-.477-.2a20.54,20.54,0,0,1,2.22,1.113,1.486,1.486,0,0,0,.743.237,2.055,2.055,0,0,0,1.993-.955,2.022,2.022,0,0,0,.2-1.541,2.076,2.076,0,0,0-.92-1.195Z"/>
<path class="c" d="M86.13,339.088a13.507,13.507,0,0,0-2.3,1.926,9.846,9.846,0,0,0-1.6,2.321,2.141,2.141,0,0,0-.2,1.541,2.038,2.038,0,0,0,.92,1.2,2.013,2.013,0,0,0,1.541.2,1.979,1.979,0,0,0,1.195-.919,8.153,8.153,0,0,1,.872-1.422l-.313.4a9.428,9.428,0,0,1,1.684-1.65l-.405.313c.2-.158.414-.31.627-.458a2.143,2.143,0,0,0,.919-1.195,2.045,2.045,0,0,0-.2-1.542,2.02,2.02,0,0,0-1.195-.919,1.98,1.98,0,0,0-1.541.2Z"/>
<path class="c" d="M130.88,293.7c8.942,11.76,15,25.257,22.751,37.765,1.354,2.184,4.815.178,3.454-2.019-7.751-12.508-13.809-26-22.751-37.765a2.066,2.066,0,0,0-2.737-.717,2.013,2.013,0,0,0-.717,2.736Z"/>
<path class="c" d="M150.177,280.119c2.72,2.964,5.208,6.126,7.828,9.176,2.666,3.1,5.591,5.948,8.411,8.907,2.679,2.811,5.316,5.662,8.046,8.424,2.467,2.494,5.049,4.866,7.545,7.331a78.768,78.768,0,0,0,7.379,6.635,19.057,19.057,0,0,0,8.155,4.056c6.524,1.081,10.934-4.8,13.871-9.764,4.4-7.442,8.4-15.455,10.147-23.974.515-2.513-3.339-3.587-3.857-1.063-1.541,7.514-4.905,14.385-8.615,21.041a37.89,37.89,0,0,1-4.261,6.509C203.3,319.15,201.3,321,198.8,320.8c-2.612-.2-5.086-1.9-7.105-3.443a71.46,71.46,0,0,1-6.741-6.114c-4.954-4.891-9.9-9.742-14.691-14.8-2.937-3.1-6.022-6.069-8.832-9.29-2.843-3.26-5.5-6.678-8.426-9.866-1.744-1.9-4.567.933-2.828,2.828Z"/>
<path class="c" d="M202.9,254.2c-8.26,1.176-10.122,10.507-11.062,17.392-.536,3.932-.848,7.98-1.667,11.862-.781,3.7-3.252,6.812-3.552,10.631-.2,2.567,3.8,2.554,4,0a13.463,13.463,0,0,1,1.536-4.394,24.571,24.571,0,0,0,1.829-4.964c.771-3.5,1.031-7.137,1.522-10.681.507-3.664.871-7.51,2.349-10.942a10.428,10.428,0,0,1,2.716-3.761,6.134,6.134,0,0,1,3.392-1.286,2.014,2.014,0,0,0,1.4-2.461,2.052,2.052,0,0,0-2.46-1.4Z"/>
<path class="c" d="M191.657,285.565c-7.5-7.143-14.159-15.114-21.7-22.219-1.872-1.765-4.706,1.058-2.828,2.828,7.539,7.106,14.194,15.077,21.7,22.219,1.865,1.775,4.7-1.049,2.829-2.828Z"/>
<path class="c" d="M167.13,263.346c-2.858,2.385-5.779,4.48-8.9,6.851-2.679,2.034-5.653,4.016-7.934,6.515a2.043,2.043,0,0,0,0,2.828,2.021,2.021,0,0,0,2.829,0,27.89,27.89,0,0,1,3.125-2.781c1.548-1.251,2.771-2.178,4.366-3.386,3.132-2.373,6.328-4.68,9.346-7.2a2.014,2.014,0,0,0,0-2.828,2.043,2.043,0,0,0-2.828,0Z"/>
<path class="c" d="M164.948,258.636s-.332-.434-.159-.2c.146.2-.06-.09-.094-.137-.145-.206-.284-.417-.418-.631-.282-.453-.539-.922-.779-1.4-.46-.912-.859-1.853-1.265-2.79a20.9,20.9,0,0,0-3.3-5.649,11.528,11.528,0,0,0-4.818-3.439,3.453,3.453,0,0,0-4.313,1.437c-1.047,2.182.261,4.72,1.4,6.588a2,2,0,1,0,3.454-2.018c-.269-.442-.526-.89-.755-1.354-.061-.125-.295-.714-.131-.266-.066-.179-.137-.356-.195-.538-.051-.16-.1-.323-.134-.487a1.15,1.15,0,0,0-.045-.225c.015.027.034.523.031.218,0-.12.006-.256-.007-.375-.024-.221-.154.5-.008.135.092-.229-.284.494-.062.158.128-.193-.382.437-.1.164.027-.027-.466.35-.248.205.112-.074.44-.15-.3.122.369-.135-.007.058-.188,0a1.207,1.207,0,0,0,.312,0c.206-.011-.526-.127-.1,0,.126.037.252.073.377.111.475.144-.3-.169.08.031.28.148.556.294.822.467.157.1.307.211.46.319.084.059.27.237-.051-.041.1.085.2.163.3.247.318.271.622.558.915.856.164.168.325.339.479.515.077.087.149.176.224.264.242.283-.072-.119.056.069a28.143,28.143,0,0,1,2.533,4.821,22.9,22.9,0,0,0,3.205,5.647,2.007,2.007,0,0,0,2.828,0,2.056,2.056,0,0,0,0-2.828Z"/>
<path class="c" d="M154.909,251.42c-3.908-1.167-7.151-3.819-10.047-6.593a27.424,27.424,0,0,0-3.44-2.889,4.769,4.769,0,0,0-3.963-1.008c-2.449.741-2.258,3.695-1.957,5.687a2.013,2.013,0,0,0,2.46,1.4,2.051,2.051,0,0,0,1.4-2.46c-.027-.179-.024-.884-.059-1.266-.03-.328-.156.32.031-.137.069-.205.04-.146-.087.179q.157-.267-.162.177.212-.214-.221.151c.173-.1.086-.063-.264.1.282-.088-.6,0-.115.033-.219-.015-.455-.146-.152,0,.141.067.561.294.044,0,.305.176.616.329.91.524.162.107.316.226.477.335q.263.2-.044-.039c.081.064.161.127.241.192.591.486,1.162.993,1.72,1.517,3.562,3.352,7.388,6.533,12.168,7.96,2.472.739,3.528-3.121,1.063-3.857Z"/>
<path class="c" d="M138.887,244.532a2.379,2.379,0,0,0-2.215-.14,2.334,2.334,0,0,0-1.37,2.287,8.851,8.851,0,0,0,.476,2.82,23.6,23.6,0,0,0,2.508,4.857,2,2,0,1,0,3.454-2.019c-.56-.9-1.127-1.8-1.607-2.743-.112-.221-.214-.445-.32-.669-.17-.363.172.436-.011-.032-.052-.132-.1-.265-.148-.4a8.3,8.3,0,0,1-.368-1.514l.071.531a6.831,6.831,0,0,1-.05-1.07l-.071.532q-2.04,1.347-1.136,1.138l-.532.071a.476.476,0,0,1,.136,0l-.532-.071q-.544-.281-.3-.127a2.015,2.015,0,0,0,2.737-.718,2.047,2.047,0,0,0-.718-2.736Z"/>
<path class="c" d="M138.4,251.833a10.4,10.4,0,0,0-2.345.062,2.068,2.068,0,0,0-2,2c-.347,5.283,3.675,10.139,7.2,13.6a42.38,42.38,0,0,0,12.6,8.887,2.068,2.068,0,0,0,2.736-.717,2.015,2.015,0,0,0-.718-2.737,39.135,39.135,0,0,1-11.388-7.877,28.486,28.486,0,0,1-4.756-5.675,9.225,9.225,0,0,1-1.673-5.48l-2,2a10.4,10.4,0,0,1,2.345-.062,2.012,2.012,0,0,0,2-2,2.047,2.047,0,0,0-2-2Z"/>
<path class="c" d="M147.64,254.527c-.781-.539-1.552-1.092-2.308-1.666l-.285-.219c.474.359.074.057-.029-.025q-.318-.251-.632-.507-.664-.543-1.3-1.115a21.138,21.138,0,0,1-2.268-2.329c-.205-.25-.091-.149.031.048-.077-.124-.177-.237-.261-.356q-.183-.261-.347-.532a6.812,6.812,0,0,1-.331-.612c-.081-.171-.1-.41.053.133-.033-.115-.082-.226-.118-.34a2,2,0,0,0-3.857,1.063,13.614,13.614,0,0,0,4.175,5.668,52.472,52.472,0,0,0,5.46,4.243,2.011,2.011,0,0,0,2.736-.717,2.051,2.051,0,0,0-.717-2.737Z"/>
<path class="c" d="M146.108,258.714c-2.7-2.312-4.749-5.25-7.264-7.748a2,2,0,0,0-2.828,2.829c2.514,2.5,4.561,5.436,7.263,7.747a2,2,0,0,0,2.829-2.828Z"/>
<path class="c" d="M137.086,245.577c-5.331-6-10.623-12.031-16.084-17.911l-.405,3.141c3.8-2.709,4.936-7.961,5.006-12.374l-3.414,1.414c9.967,7.761,18.473,17.356,27.068,26.558,1.761,1.885,4.585-.948,2.829-2.828-8.6-9.2-17.1-18.8-27.069-26.559a2.03,2.03,0,0,0-3.414,1.415c-.044,2.779-.533,7.145-3.025,8.92a2.035,2.035,0,0,0-.405,3.141c5.461,5.88,10.754,11.913,16.084,17.911,1.714,1.928,4.534-.909,2.829-2.828Z"/>
<path class="c" d="M128.515,221.092a90.663,90.663,0,0,0,5.973-8.376,47.471,47.471,0,0,0,4.58-7.893l-3.342.883c9.324,11.476,20.474,21.237,31.015,31.55v-2.829c-2.684,2.841-5.433,5.436-7.574,8.74-1.405,2.166,2.057,4.173,3.454,2.018,1.947-3,4.5-5.343,6.949-7.929a2.034,2.034,0,0,0,0-2.829c-10.541-10.312-21.692-20.073-31.016-31.549-1.063-1.309-2.835-.339-3.343.882-.1.248-.205.5-.31.745-.156.368.251-.483.06-.15-.093.162-.17.335-.259.5-.282.521-.591,1.027-.9,1.532-.891,1.457-1.824,2.888-2.768,4.311q-1.5,2.268-3.068,4.5c-.816,1.159-1.6,2.27-2.28,3.071-1.649,1.957,1.167,4.8,2.829,2.829Z"/>
<path class="c" d="M214.591,259.34c.431.164-.158-.1.215.1.167.088.333.177.494.276s.32.2.472.319c-.288-.216.138.125.191.174a8.96,8.96,0,0,1,.826.85,4.946,4.946,0,0,1,.549.748,16.08,16.08,0,0,1,2.075,4.738,27.722,27.722,0,0,1,1.116,9.847,2,2,0,0,0,4,0,31.964,31.964,0,0,0-1.461-11.578c-1.24-3.912-3.392-7.8-7.413-9.329a2.017,2.017,0,0,0-2.461,1.4,2.045,2.045,0,0,0,1.4,2.46Z"/>
<path class="c" d="M201.539,253.068a31.732,31.732,0,0,1,3.367-8.116,47.679,47.679,0,0,1,5.384-8.219,93,93,0,0,1,6.694-6.473,40.077,40.077,0,0,0,7.165-8.331l-2.736.718c1.653,1.025,2.162,3.786,2.523,5.676.216,1.127.365,2.264.553,3.4a14.144,14.144,0,0,0,.6,2.282c1.128,2.957,3.66,5.127,5.315,7.779a46.854,46.854,0,0,1,3.967,8.253,164.507,164.507,0,0,1,5.152,17.5,65.376,65.376,0,0,1,1.963,10.417,101.615,101.615,0,0,1,.238,12.265c-.2,6.507-.565,13.025-1.026,19.519a165.758,165.758,0,0,1-2.1,18.122,63.9,63.9,0,0,1-1.961,8.119A18.956,18.956,0,0,1,234,341.6c.164-.218-.2.238-.266.311-.145.168-.295.332-.447.493-.39.416-.8.812-1.22,1.2a34.7,34.7,0,0,1-2.8,2.293,71.393,71.393,0,0,1-7.405,4.75,67.38,67.38,0,0,1-7.785,3.824,25.248,25.248,0,0,1-6.831,1.989c-6.3.609-12.682-1.079-18.918-1.694a33.815,33.815,0,0,0-3.883-.192c-2.571.044-2.579,4.044,0,4,6.383-.109,12.676,1.681,19.047,1.949,5.92.249,11.2-1.76,16.443-4.339a63.855,63.855,0,0,0,14.957-9.751c3.654-3.345,5.313-7.851,6.5-12.564,3.059-12.158,3.41-24.946,4.055-37.409.437-8.452.759-17.022-.942-25.366a166.012,166.012,0,0,0-4.881-18.129c-2.03-6.231-4.588-12.147-8.769-17.239a18.133,18.133,0,0,1-1.482-2.056,7.643,7.643,0,0,1-.5-.918c-.087-.2-.363-1.224-.2-.574-.215-.843-.359-1.687-.491-2.548a23.02,23.02,0,0,0-2.069-7.528,7.631,7.631,0,0,0-2.686-2.907,2.025,2.025,0,0,0-2.736.717c-3.415,5.889-9.62,9.446-13.8,14.683a56.452,56.452,0,0,0-5.77,8.949,34.481,34.481,0,0,0-3.445,8.463c-.547,2.509,3.308,3.581,3.857,1.063Z"/>
<path class="c" d="M195.968,233.05c-.383-.291.192.182.292.276.183.175.358.359.525.55.1.115.2.234.292.353-.164-.2-.118-.153.009.026q.224.318.426.65a15.544,15.544,0,0,1,.75,1.393c.127.266.245.536.364.806-.068-.155-.095-.233-.014-.03.06.15.121.3.18.452.817,2.087,1.446,4.247,2.421,6.27a2.012,2.012,0,0,0,2.737.718,2.052,2.052,0,0,0,.717-2.737c-.113-.236-.218-.476-.326-.714s.141.358,0,0c-.055-.14-.112-.279-.166-.419-.2-.507-.381-1.019-.563-1.532-.387-1.09-.766-2.184-1.208-3.253a14.28,14.28,0,0,0-4.42-6.264,2,2,0,0,0-2.736.717,2.061,2.061,0,0,0,.717,2.736Z"/>
<path class="c" d="M224.709,231.523c-1.951,1.493-3.659,3.228-5.459,4.892-.411.379-.828.751-1.261,1.1-.033.027-.415.333-.26.211.127-.1-.163.124-.19.144-.238.18-.478.356-.719.531-.994.718-2.006,1.411-2.989,2.145a2.051,2.051,0,0,0-.718,2.736,2.02,2.02,0,0,0,2.736.717c1.99-1.484,4.095-2.818,5.937-4.492.859-.781,1.687-1.6,2.529-2.395.408-.386.818-.769,1.238-1.143q.33-.294.668-.579c.124-.1.25-.208.376-.31.045-.036.382-.3.13-.107a2.055,2.055,0,0,0,.718-2.736,2.02,2.02,0,0,0-2.736-.718Z"/>
<path class="c" d="M68.005,320.831a251.926,251.926,0,0,0-28.122,1.963c-9.436,1.081-19.546,2-28.218,6.145C5.58,331.847.354,337.009.017,344.075c-.289,6.053,3.087,11.819,7.329,15.89a39.531,39.531,0,0,0,9.753,6.506,99.934,99.934,0,0,0,17.17,6.722,146.6,146.6,0,0,0,35.649,5.4,249.055,249.055,0,0,0,36.256-1.387c12.68-1.391,25.264-3.3,38-4.256a335.041,335.041,0,0,1,58.548.5c11.779,1.185,23.553,2.421,35.329,3.63,13.626,1.4,27.252,2.811,40.888,4.106a200.566,200.566,0,0,0,33.435.324c8.752-.627,17.716-1.545,26.157-4.055,7.741-2.3,15.629-7.277,18.1-15.422,2.621-8.643-2.735-17.153-9.051-22.633a44.661,44.661,0,0,0-12.651-7.819,80.853,80.853,0,0,0-10.749-3.091,93.08,93.08,0,0,0-12.022-2.283c-2.557-.27-2.538,3.732,0,4a87.465,87.465,0,0,1,11.6,2.3,71.174,71.174,0,0,1,10.2,2.972c-.458-.189.308.145.319.15.307.145.614.286.919.433q.793.385,1.574.8,1.753.926,3.425,1.994a38.849,38.849,0,0,1,5.577,4.3,23.917,23.917,0,0,1,6.9,10.186c2.475,8.153-3.365,15.207-10.478,18.543-6.968,3.267-15.263,4.212-22.827,5.016a185.7,185.7,0,0,1-36.143.691c-12.03-1.084-24.046-2.343-36.062-3.57q-19.356-1.977-38.71-3.98a358.01,358.01,0,0,0-43.975-2.065c-12.065.249-24.111,1.133-36.1,2.457-11.9,1.314-23.7,3.218-35.672,3.894-23.137,1.308-47.528.237-69.061-9.168-6.7-2.926-13.594-6.421-17.412-12.951-2.616-4.475-3.177-9.763-.017-14.105,4.682-6.435,13.909-8.3,21.231-9.562a280.034,280.034,0,0,1,28.7-3.217c3.948-.266,7.906-.475,11.865-.482,2.573,0,2.578-4,0-4Z"/>
<path class="f" d="M87.687,124.745c1.128,4.669,3.6,8.565,6.369,12.411,1.554,2.158,6.382,8.626,7.147,9.77a6.819,6.819,0,0,1,1.078,1.67c.122.527-.2.8-.564,1.175a19.283,19.283,0,0,1-5.567,3.7,27.652,27.652,0,0,1-8.162,2.73,22.1,22.1,0,0,1-12.958-2.494,1.318,1.318,0,0,1-.745-1.432,39.245,39.245,0,0,1,.306-4.09l.211-2.353a15.328,15.328,0,0,0,.2-2.372c-.26.223-.573.36-.852.558l-.931.658L71.3,146.041l-1.862,1.317c-.31.219-.622.437-.931.658a2.922,2.922,0,0,1-.912.534c-.714.15-1.826-.756-2.417-1.133A16.079,16.079,0,0,1,60.9,143.2a23.913,23.913,0,0,1-3.83-8.217,24.371,24.371,0,0,1-.723-7.226,15.634,15.634,0,0,1,.589-3.55c.342-1.147.465-2.093,1.9-1.827,8.633,1.595,18.261,3.272,26.941,1.393,0,0,1.3-.327,1.57-.431C87.4,123.62,87.687,124.745,87.687,124.745Z"/>
<path class="c" d="M89.315,123.615a86.2,86.2,0,0,1,5.584-10.54,53.793,53.793,0,0,1,6.7-8.744l-.883.514.039-.007-1.541-.2a1.034,1.034,0,0,1,.36.448l-.2-1.541-.009.041.514-.883c-3.171,2.522-5.594,6.068-7.92,9.351-1.257,1.774-2.488,3.569-3.664,5.4a31.25,31.25,0,0,0-2.634,4.623,2.068,2.068,0,0,0,.717,2.736,2.014,2.014,0,0,0,2.737-.717,46.546,46.546,0,0,1,4.812-7.892q1.414-2.061,2.888-4.08c.336-.459.676-.914,1.017-1.369.355-.473-.19.226.132-.171s.656-.811.994-1.209c.655-.769,1.329-1.524,2.033-2.249s1.951-1.485,2.231-2.475c.328-1.159-.51-2.3-1.356-3.012a2.37,2.37,0,0,0-2.173-.655,3.646,3.646,0,0,0-1.675,1.351,57.306,57.306,0,0,0-6.4,8.439,92.414,92.414,0,0,0-6.158,11.781,2.011,2.011,0,0,0,1.4,2.46,2.052,2.052,0,0,0,2.46-1.4Z"/>
<path class="c" d="M85.759,125.277c1.384,5.506,4.552,10.155,7.868,14.666,1.3,1.762,2.6,3.519,3.892,5.281.487.664.975,1.327,1.454,2,.152.212.3.427.451.639.177.246.361.483.542.727l.117.156q.318.609.169-.033l.515-.882c-1.831,2.34-4.964,3.728-7.642,4.84a19.756,19.756,0,0,1-9.282,1.634,20.611,20.611,0,0,1-4.363-.877,18.993,18.993,0,0,1-1.879-.67c-.308-.131-.613-.278-.912-.428l-.329-.169q-.682-.5-.065.44c-.143,0,.723-8.421.706-9.133-.035-1.386-1.724-2.664-3.01-1.727-1.765,1.286-3.6,2.5-5.381,3.762a7.213,7.213,0,0,0-1.117.79c-.306.331-.311.206.1.293a2.148,2.148,0,0,1-.4-.215,25.525,25.525,0,0,1-2.214-1.578,22.028,22.028,0,0,1-6.569-17.929,12.578,12.578,0,0,1,.271-1.467c.049-.2.447-1.107.373-1.333-.178-.55.1-.067.023-.1.179.071-.587.363-.584.378a10.869,10.869,0,0,0,1.793.335,112.617,112.617,0,0,0,14.084,1.85c4.408.232,9.268.179,13.5-1.253l-2.46-1.4c.108.47.227.936.346,1.4.634,2.493,4.493,1.436,3.857-1.063-.119-.467-.238-.934-.346-1.4a2.016,2.016,0,0,0-2.46-1.4c-4.347,1.472-9.317,1.355-13.83,1.021-2.764-.2-5.509-.579-8.243-1.03-1.278-.211-2.554-.437-3.828-.669s-2.7-.692-3.942-.07c-1.934.969-2.262,3.842-2.5,5.746a24.837,24.837,0,0,0,.418,8,24.233,24.233,0,0,0,7.421,13.341c1.763,1.509,4.389,3.728,6.768,2.3s4.687-3.219,6.934-4.856L73,143.464c.069,2.786-.673,5.585-.713,8.378a3.827,3.827,0,0,0,1.039,3.095,11.358,11.358,0,0,0,3.575,1.819,22.984,22.984,0,0,0,16.438.1A32.345,32.345,0,0,0,100.976,153a10.339,10.339,0,0,0,2.932-2.75,3.364,3.364,0,0,0-.59-3.816c-2.008-2.658-3.936-5.385-5.912-8.068-3.217-4.37-6.446-8.809-7.79-14.152C88.989,121.719,85.13,122.776,85.759,125.277Z"/>
<path class="f" d="M339.605,177.155c-.843,3.793-2.783,6.981-4.967,10.134-1.225,1.768-5.034,7.072-5.635,8.009a5.5,5.5,0,0,0-.848,1.367c-.091.428.175.644.474.942a15.59,15.59,0,0,0,4.559,2.913,22.376,22.376,0,0,0,6.642,2.087,17.874,17.874,0,0,0,10.445-2.211,1.064,1.064,0,0,0,.581-1.169,31.648,31.648,0,0,0-.308-3.3l-.206-1.9a12.448,12.448,0,0,1-.2-1.916c.214.177.468.283.7.439l.763.518,1.576,1.073,1.526,1.037c.254.173.509.344.762.519a2.389,2.389,0,0,0,.746.418c.58.11,1.466-.639,1.938-.953a12.985,12.985,0,0,0,3.4-3.474,19.362,19.362,0,0,0,2.976-6.7,19.759,19.759,0,0,0,.477-5.857,12.606,12.606,0,0,0-.53-2.862c-.293-.923-.406-1.686-1.563-1.45-6.959,1.419-14.722,2.919-21.772,1.528,0,0-1.056-.244-1.276-.325C339.82,176.24,339.605,177.155,339.605,177.155Z"/>
<path class="c" d="M341.55,174.8a58.222,58.222,0,0,0-9.4-14.814c-.671-.763-1.435-1.943-2.452-2.227-1.283-.359-2.421.651-3.03,1.675a2.139,2.139,0,0,0-.208,2.011,2.39,2.39,0,0,0,.819.957c-.361-.3.126.12.157.148a24.755,24.755,0,0,1,1.782,1.767q1.175,1.263,2.233,2.625c-.352-.452.123.163.215.283q.276.363.549.729.618.825,1.224,1.661a41.651,41.651,0,0,1,4.653,7.2,2.014,2.014,0,0,0,2.737.718,2.05,2.05,0,0,0,.717-2.737,24.9,24.9,0,0,0-2.163-3.645c-1.018-1.525-2.085-3.018-3.174-4.493a36.972,36.972,0,0,0-6.911-7.714l.919,1.2-.008-.033-.2,1.541q.222-.306.053-.148c.167-.172.194-.2.083-.093l-1.541.2.032,0-.883-.514c1.428,1.5,2.764,3.074,4.046,4.7.413.524-.043-.067.092.119.041.057.083.114.124.172.106.152.209.306.312.461.322.485.633.977.94,1.471a71.384,71.384,0,0,1,4.826,8.8,2.015,2.015,0,0,0,2.737.718,2.05,2.05,0,0,0,.717-2.737Z"/>
<path class="c" d="M337.676,176.623c-.942,4.026-3.189,7.43-5.543,10.766-1.6,2.272-3.22,4.536-4.806,6.821a4.828,4.828,0,0,0-1.172,2.455,3.513,3.513,0,0,0,1.521,2.783,21.438,21.438,0,0,0,5.941,3.432,19.619,19.619,0,0,0,13.66.953c1.962-.6,5.022-1.487,5.5-3.77a12.624,12.624,0,0,0-.205-3.921,36.637,36.637,0,0,1-.427-4.035l-3.009,1.727c1.818,1.2,3.589,2.508,5.438,3.666,1.831,1.146,3.352.294,4.923-.848a19.087,19.087,0,0,0,6.8-10.508,21.634,21.634,0,0,0,.734-6.568,11.748,11.748,0,0,0-1.293-5.478c-1.274-2.009-3.678-1.143-5.559-.772-2.234.441-4.478.861-6.738,1.146-4.216.533-8.925.892-13.047-.386a2.018,2.018,0,0,0-2.461,1.4c-.08.381-.17.761-.259,1.14-.587,2.5,3.269,3.572,3.857,1.063.089-.379.179-.758.259-1.139l-2.46,1.4a31.011,31.011,0,0,0,11.343.811c2.182-.168,4.354-.468,6.512-.826,1.058-.176,2.112-.369,3.165-.572.669-.128,2.375-.742,2.883-.551l-.883-.514a6.868,6.868,0,0,1,.6,2.27,16.3,16.3,0,0,1,.016,3.734,17.5,17.5,0,0,1-2.214,6.91,13.328,13.328,0,0,1-4.24,4.669,3.146,3.146,0,0,1-.3.188q-.514.261.492.062c0-.076-.551-.38-.608-.419-.508-.347-1.018-.691-1.526-1.037q-1.7-1.157-3.418-2.289a2.016,2.016,0,0,0-3.009,1.727,35.315,35.315,0,0,0,.4,3.816c.062.55.137,1.1.2,1.65.037.335.068.67.087,1.006.026.463-.185.717.229.369.664-.558-.276-.012-.435.07-.223.114-.448.225-.677.327a14.552,14.552,0,0,1-1.543.57,16.138,16.138,0,0,1-3.5.732,15.827,15.827,0,0,1-7.172-1.194c-2.115-.825-4.6-1.877-6.071-3.682l.515.882c.163.393-.141.626.281.036.1-.14.2-.279.3-.421.115-.166.225-.335.339-.5.394-.574.8-1.141,1.2-1.709,1.022-1.448,2.051-2.891,3.074-4.338,2.626-3.713,5.117-7.546,6.167-12.034C342.12,175.182,338.264,174.113,337.676,176.623Z"/>
<path class="f" d="M334.649,340.893a20.982,20.982,0,0,0,4,7.167c.958,1.237,3.929,4.941,4.4,5.6a4.014,4.014,0,0,1,.668.96c.083.307-.1.475-.308.7a11.325,11.325,0,0,1-3.2,2.292,16.24,16.24,0,0,1-4.743,1.773,13,13,0,0,1-7.67-1.2c-.4-.2-.451-.424-.468-.827a23.138,23.138,0,0,1,.1-2.411l.076-1.388a9,9,0,0,0,.068-1.4c-.148.136-.329.223-.489.345l-.534.406-1.1.84-1.068.812c-.178.136-.356.27-.533.407a1.728,1.728,0,0,1-.526.332c-.417.1-1.089-.407-1.444-.617a9.443,9.443,0,0,1-2.6-2.39,14.08,14.08,0,0,1-2.421-4.753,14.375,14.375,0,0,1-.574-4.234,9.231,9.231,0,0,1,.274-2.1c.177-.681.23-1.24,1.079-1.113,5.109.761,10.8,1.549,15.87.266,0,0,.757-.219.914-.286C334.458,340.238,334.649,340.893,334.649,340.893Z"/>
<path class="c" d="M336.367,340.454c.1-.263.207-.523.311-.784l-.044.1c.033-.076.066-.152.1-.228.056-.129.113-.257.171-.385q.393-.871.818-1.729.779-1.579,1.63-3.121a29.925,29.925,0,0,1,3.61-5.1l-.882.514.023,0-1.541-.2q.291.173-.035-.037-.219-.306-.025-.017l-.2-1.541,0,.024.514-.883a26.885,26.885,0,0,0-4.616,5.843,34.845,34.845,0,0,0-3.685,6.478,2.008,2.008,0,0,0,1.4,2.46,2.056,2.056,0,0,0,2.46-1.4c.165-.433-.215.436.007-.014.081-.162.157-.326.239-.487.218-.424.451-.84.689-1.252.53-.918,1.089-1.818,1.66-2.71q.762-1.192,1.558-2.363c.185-.271.371-.542.561-.81.062-.086.123-.172.186-.257q.127-.174.26-.346c-.293.386.058-.069.094-.115.372-.464.756-.92,1.159-1.358.5-.545,1.179-1,1.378-1.75a2.751,2.751,0,0,0-1.44-2.844,2.162,2.162,0,0,0-1.7-.275,2.991,2.991,0,0,0-1.448,1.188,34.77,34.77,0,0,0-3.606,5.116,56.015,56.015,0,0,0-3.453,7.214,2.008,2.008,0,0,0,1.4,2.46,2.056,2.056,0,0,0,2.46-1.4Z"/>
<path class="c" d="M332.721,341.425c1,3.38,3.011,6.15,5.166,8.881.791,1,1.588,2,2.38,3a9.632,9.632,0,0,1,1.726,2.317l-.273-1.009,0,.268.273-1.009a6.547,6.547,0,0,1-2.617,1.915,15.776,15.776,0,0,1-3.611,1.487,9.726,9.726,0,0,1-7.2-.98l.718.717q.078.724.037-.08c0-.261.009-.522.026-.783.02-.4.055-.8.079-1.206.055-.922.18-1.865.144-2.786-.053-1.368-1.716-2.687-3.009-1.727a33.5,33.5,0,0,1-4.253,3.142l1.009-.273c.394-.008.2.073-.114-.143-.214-.144-.443-.264-.655-.411a7.362,7.362,0,0,1-1.227-1.113,11.674,11.674,0,0,1-2.031-3.169,12.373,12.373,0,0,1-.966-3.731c-.095-.994-.149-2.793.307-3.46l-.718.717q-.691.091-.174.126l.647.095q.544.078,1.09.153c.839.116,1.679.227,2.52.324,1.563.18,3.133.311,4.707.343a23.457,23.457,0,0,0,8.242-1.029l-2.461-1.4c.074.273.153.545.233.817.719,2.466,4.58,1.417,3.857-1.063-.079-.272-.159-.544-.233-.818a2.017,2.017,0,0,0-2.46-1.4c-3.6,1.285-7.711,1-11.439.594-1.145-.124-2.285-.28-3.425-.447a4.482,4.482,0,0,0-2.952.121c-1.637.912-1.782,3.5-1.789,5.131a15.986,15.986,0,0,0,4.771,11.481c1.14,1.067,3.093,2.675,4.8,2.205a7.48,7.48,0,0,0,2.248-1.482q1.236-.941,2.482-1.863l-3.009-1.726c.077,1.984-.7,4.284-.079,6.216.653,2.022,3.8,2.647,5.627,2.94a16.438,16.438,0,0,0,12.686-3.649,4.914,4.914,0,0,0,1.843-2.25c.326-1.184-.331-2.085-1.013-2.957.228.291-.152-.2-.186-.244q-.35-.453-.7-.9-.7-.888-1.4-1.771c-2.246-2.832-4.73-5.65-5.773-9.18C335.85,337.9,331.989,338.947,332.721,341.425Z"/>
<path class="c" d="M133.524,291.522c.042-.36.079-.719.085-1.082a13.059,13.059,0,0,0-.221-2.35,1.928,1.928,0,0,0-1.663-1.433,1.522,1.522,0,0,0-.8.036,2.03,2.03,0,0,0-1.2.919l-.2.478a2,2,0,0,0,0,1.063c.021.128.041.256.058.384l-.071-.532a10,10,0,0,1,.006,2.517,2.228,2.228,0,0,0,.585,1.414,2,2,0,0,0,2.829,0l.313-.4a1.987,1.987,0,0,0,.273-1.009Z"/>
<path class="g" d="M45.467,343.336c-2.859-3.5-1.477-7.021,4.115-7.835,7.969-1.161,13.282-.31,20.183-.43.426,3.869,6.992,9.4,15.237,8.54,3.059,4.405.218,10.038-3.829,10.087-8.515.1-23.249-3.7-27.23-5.1C49.851,347.145,47.028,345.245,45.467,343.336Z"/>
<path class="c" d="M83.4,344.81c1.179,1.913,1.293,4.625-.556,6.2-1.55,1.321-4.4.638-6.261.454a108.362,108.362,0,0,1-15.967-3.027c-4.224-1.077-8.862-2.183-12.276-5.047a8.131,8.131,0,0,1-1.869-2.094c-.072-.125-.143-.252-.206-.382-.276-.57.069.3-.108-.279a4.622,4.622,0,0,1-.142-.556c.076.432,0-.267.007-.365a1.618,1.618,0,0,1,.376-.8,4.36,4.36,0,0,1,2.014-1.12c3.357-1,7.209-.934,10.679-.911,3.558.024,7.112.239,10.671.187,2.572-.037,2.579-4.037,0-4-3.691.054-7.376-.181-11.066-.189s-7.786,0-11.347,1.056a7.16,7.16,0,0,0-5.077,4.316c-.742,2.258.238,4.577,1.65,6.334,3.456,4.3,9.23,6.015,14.36,7.376A114.6,114.6,0,0,0,76.914,355.5c3.333.312,6.852.608,9.266-2.184a8.919,8.919,0,0,0,.677-10.521c-1.348-2.188-4.809-.181-3.454,2.019Z"/>
<path class="c" d="M85.02,341.609a14.712,14.712,0,0,1-5.164-.322,13.12,13.12,0,0,1-4.221-1.787c-.305-.192-.6-.4-.894-.607-.078-.056-.155-.113-.231-.172.13.1.141.106.033.02s-.238-.2-.355-.3a13.056,13.056,0,0,1-1.454-1.5c.172.207.081.113-.03-.046-.089-.128-.178-.255-.262-.387-.147-.23-.272-.469-.4-.707-.07-.127-.167-.509-.026-.032-.038-.126-.095-.25-.134-.376-.057-.18-.195-.972-.113-.321a2.065,2.065,0,0,0-2-2,2.012,2.012,0,0,0-2,2c.417,3.319,2.822,5.879,5.517,7.667a18.269,18.269,0,0,0,11.738,2.871,2.055,2.055,0,0,0,2-2,2.014,2.014,0,0,0-2-2Z"/>
<path class="c" d="M198.456,243.027c-2.608,6.163-6.4,11.693-9.64,17.52-2.922,5.251-5.128,10.852-7.674,16.285a2.056,2.056,0,0,0,.717,2.736,2.017,2.017,0,0,0,2.737-.717c2.546-5.433,4.754-11.033,7.674-16.285,3.24-5.829,7.032-11.357,9.64-17.52a2.068,2.068,0,0,0-.717-2.736,2.014,2.014,0,0,0-2.737.717Z"/>
<path class="c" d="M118.388,324.237c7.72,0,15.471-.2,23.187.091,2.574.1,2.57-3.9,0-4-7.716-.287-15.467-.092-23.187-.091-2.574,0-2.578,4,0,4Z"/>
<path class="c" d="M135.142,258.418c-12.89-5.174-22.573,7.828-28.729,17.174-3.377,5.128-6.681,10.286-10.15,15.354-4.211,6.151-8.421,12.3-12.44,18.584-4.359,6.81-8.241,13.963-13.189,20.378a1.991,1.991,0,0,0,.313,2.424c5.063,3.976,11.3,6.465,15.906,11.02a2.035,2.035,0,0,0,2.828,0c2.98-2.862,5.992-5.693,8.9-8.625,3.1-3.118,5.981-6.433,8.94-9.679,2.979-3.266,6.171-6.325,9.131-9.607a124.285,124.285,0,0,0,8.409-10.386,87.984,87.984,0,0,0,7.69-12.6c1.135-2.3-2.314-4.329-3.454-2.019A97.637,97.637,0,0,1,114.734,311.6c-2.917,3.305-6.1,6.35-9.086,9.586s-5.864,6.582-8.936,9.743c-3.2,3.289-6.552,6.421-9.859,9.6h2.828c-4.638-4.593-10.822-7.029-15.906-11.021l.313,2.424c4.233-5.488,7.659-11.528,11.31-17.4,3.8-6.116,7.842-12.081,11.9-18.027,3.5-5.13,7.022-10.241,10.364-15.478,2.974-4.659,5.992-9.371,9.82-13.388a23.747,23.747,0,0,1,6.8-5.246,11.789,11.789,0,0,1,9.793-.11,2.014,2.014,0,0,0,2.46-1.4,2.049,2.049,0,0,0-1.4-2.46Z"/>
</g>
</svg>