<svg width="13" height="14" viewBox="0 0 13 14" fill="none" xmlns="http://www.w3.org/2000/svg">
<path d="M9.64429 13.9999C7.31053 13.9999 4.98018 13.9999 2.64642 13.9999C2.63617 13.9931 2.62251 13.9828 2.61225 13.9828C2.00746 13.8564 1.63501 13.4566 1.57693 12.8416C1.50517 12.0625 1.44708 11.28 1.37874 10.501C1.30016 9.56132 1.22157 8.62167 1.14298 7.68202C1.07464 6.84145 1.00288 6.00431 0.934544 5.16374C0.907209 4.81521 0.879873 4.46669 0.849121 4.11133C4.38222 4.11133 7.90507 4.11133 11.4313 4.11133C11.4348 4.13183 11.4382 4.14208 11.4382 4.15575C11.3391 5.35851 11.24 6.56126 11.1409 7.76402C11.0042 9.40756 10.8675 11.0477 10.7343 12.6912C10.7035 13.05 10.6181 13.378 10.3516 13.6411C10.1534 13.8393 9.90739 13.935 9.64429 13.9999ZM4.50523 11.9737C4.4779 11.5397 4.46081 11.2083 4.44031 10.8768C4.37197 9.74926 4.30022 8.62509 4.23188 7.4975C4.18746 6.7697 4.14304 6.04531 4.0952 5.3175C4.08495 5.16716 4.01661 5.04757 3.87993 4.97581C3.59975 4.82888 3.27172 5.03048 3.28197 5.35509C3.29222 5.71045 3.31956 6.06239 3.34348 6.41775C3.41182 7.52484 3.48357 8.63534 3.55191 9.74242C3.59975 10.4839 3.64417 11.222 3.68859 11.9634C3.69884 12.1445 3.79109 12.2744 3.96194 12.3359C4.2558 12.4418 4.51548 12.2163 4.50523 11.9737ZM9.01557 5.37559C9.02582 5.13641 8.87206 4.94164 8.63288 4.92797C8.40736 4.91431 8.2126 5.09199 8.19893 5.32775C8.15109 6.07606 8.10667 6.82778 8.05883 7.57609C8.00075 8.52941 7.93924 9.48615 7.87774 10.4395C7.84699 10.9349 7.81282 11.4304 7.7889 11.9258C7.77865 12.1684 7.95633 12.353 8.18526 12.3598C8.41078 12.3632 8.58846 12.1992 8.60554 11.96C8.61579 11.8097 8.62604 11.6593 8.63288 11.509C8.69097 10.5693 8.74905 9.62625 8.80714 8.68659C8.87548 7.59659 8.94382 6.50659 9.01557 5.37559ZM6.55539 8.64217C6.55539 7.57609 6.55539 6.51001 6.55539 5.44393C6.55539 5.1159 6.40504 4.92456 6.14536 4.92456C5.88567 4.92456 5.73532 5.1159 5.73532 5.44393C5.73532 7.57609 5.73532 9.70825 5.73532 11.8404C5.73532 11.8848 5.73191 11.9327 5.73874 11.9771C5.75924 12.1514 5.84808 12.2744 6.0121 12.3359C6.29228 12.435 6.55539 12.2299 6.55539 11.9088C6.55539 10.8222 6.55539 9.73217 6.55539 8.64217Z" fill="#B80B00"/>
<path d="M3.28887 1.6444C3.28887 1.45305 3.27179 1.27878 3.29229 1.10794C3.37088 0.458722 3.85266 0.0145219 4.50871 0.00768808C5.60213 -0.00256269 6.69555 -0.00256269 7.78896 0.00768808C8.49285 0.0145219 8.99855 0.540729 9.01905 1.24462C9.02247 1.37104 9.01905 1.49747 9.01905 1.6444C9.07714 1.6444 9.12498 1.6444 9.17282 1.6444C9.92796 1.6444 10.6865 1.64098 11.4417 1.6444C11.8517 1.6444 12.1695 1.88016 12.2686 2.24919C12.3916 2.70023 12.1114 3.16151 11.6535 3.2606C11.5681 3.27769 11.4827 3.28452 11.3972 3.28452C7.8983 3.28452 4.39937 3.28452 0.900439 3.28452C0.47674 3.28452 0.1658 3.08634 0.0496244 2.74806C-0.141723 2.1911 0.240972 1.65123 0.842351 1.64781C1.59749 1.64098 2.35605 1.64781 3.11119 1.64781C3.15903 1.6444 3.20686 1.6444 3.28887 1.6444ZM4.09526 1.63756C5.46887 1.63756 6.82539 1.63756 8.19557 1.63756C8.19557 1.5043 8.19899 1.37788 8.19557 1.25145C8.18874 0.99518 8.02131 0.831167 7.76163 0.824333C7.61128 0.820916 7.46094 0.824333 7.31059 0.824333C6.39144 0.824333 5.47229 0.824333 4.55313 0.824333C4.25928 0.824333 4.09868 0.988346 4.09526 1.2822C4.09526 1.39496 4.09526 1.51114 4.09526 1.63756Z" fill="#B80B00"/>
</svg>
