<svg width="15" height="14" viewBox="0 0 15 14" fill="none" xmlns="http://www.w3.org/2000/svg">
<path d="M0.216341 14C-0.00281937 13.8605 -0.0341281 13.7808 0.028489 13.5247C0.301728 12.4346 0.57212 11.3445 0.848205 10.2543C0.868128 10.1718 0.919361 10.0836 0.979132 10.0238C3.50374 7.49066 6.0312 4.9632 8.55581 2.43859C8.58427 2.41013 8.61558 2.38451 8.63551 2.36743C9.63454 3.36646 10.6307 4.36264 11.6554 5.38444C11.6212 5.40721 11.5728 5.42713 11.5387 5.46129C9.03113 7.96598 6.5236 10.4764 4.01322 12.9782C3.93352 13.0579 3.82252 13.1234 3.71436 13.149C2.62995 13.4279 1.54269 13.6954 0.458271 13.9658C0.432655 13.9715 0.407038 13.9858 0.384269 13.9943C0.324498 14 0.270419 14 0.216341 14Z" fill="#469108"/>
<path d="M14.0007 2.56667C13.9807 2.64067 13.9722 2.72037 13.9409 2.78583C13.8498 2.97368 13.7815 3.18431 13.6449 3.33231C13.2777 3.72509 12.8821 4.08941 12.5064 4.45373C11.5244 3.47178 10.5254 2.47275 9.54346 1.4908C9.91062 1.11509 10.2664 0.708081 10.6649 0.349455C11.1943 -0.125866 12.0823 -0.111635 12.6145 0.363686C12.976 0.688157 13.3119 1.04394 13.6477 1.39687C13.8555 1.61318 13.938 1.89496 14.0035 2.18243C14.0007 2.31051 14.0007 2.43859 14.0007 2.56667Z" fill="#469108"/>
</svg>
