<svg width="21" height="18" viewBox="0 0 21 18" fill="none" xmlns="http://www.w3.org/2000/svg">
<path d="M10.1012 2.13347C10.5064 1.764 10.8759 1.38857 11.2871 1.06081C13.1881 -0.423039 15.4347 -0.214466 17.2404 0.882034C18.7719 1.81167 19.63 3.24189 20.0412 4.94623C20.4762 6.75188 20.2855 8.48602 19.2606 10.0712C18.9984 10.4764 18.6825 10.8518 18.3309 11.1796C16.1677 13.2296 13.9866 15.2557 11.8056 17.2878C10.7746 18.2472 9.45761 18.2353 8.42666 17.264C6.37073 15.3332 4.32075 13.3905 2.24098 11.4776C1.48416 10.7863 0.846518 10.0175 0.459168 9.0581C-0.714802 6.18575 0.44129 2.46123 3.0276 0.882034C4.39226 0.0477406 5.87015 -0.25618 7.43743 0.238436C8.43858 0.554276 9.23712 1.17404 9.93435 1.94278C9.98798 2.00833 10.0476 2.07388 10.1012 2.13347Z" fill="#626972"/>
</svg>
