<svg width="18" height="18" viewBox="0 0 18 18" fill="none" xmlns="http://www.w3.org/2000/svg">
<path d="M18 15.2447C18 15.2814 17.9632 15.3549 17.9632 15.3916C17.8163 15.9059 17.5224 16.2365 17.0081 16.4202C15.502 16.9345 13.9959 17.4488 12.4898 17.9263C11.4612 18.2569 10.5061 17.559 10.5061 16.4937C10.5061 16.2732 10.5061 16.0161 10.5061 15.759C10.4326 15.759 10.3592 15.759 10.2857 15.759C9.62447 15.759 8.96324 15.759 8.26528 15.759C6.94283 15.759 5.98773 14.7671 5.98773 13.4814C5.98773 12.9671 5.98773 12.4896 5.98773 11.9753C5.98773 11.6079 6.28161 11.3141 6.64896 11.2773C7.0163 11.2406 7.34692 11.461 7.45712 11.8283C7.49385 11.9385 7.49385 12.012 7.49385 12.1222C7.49385 12.563 7.49385 13.0039 7.49385 13.4447C7.49385 13.959 7.78773 14.2528 8.33875 14.2896C8.99998 14.2896 9.6612 14.2896 10.3224 14.2896C10.3959 14.2896 10.4326 14.2896 10.5061 14.2896C10.5061 14.2161 10.5061 14.1426 10.5061 14.0692C10.5061 10.5059 10.5061 6.94263 10.5061 3.37936C10.5061 2.49773 10.8 1.87324 11.6449 1.57936C11.6081 1.57936 11.5347 1.57936 11.4979 1.57936C10.4694 1.57936 9.44079 1.57936 8.37549 1.57936C7.82447 1.57936 7.53059 1.87324 7.53059 2.42426C7.53059 2.64467 7.53059 2.86508 7.53059 3.08549C7.53059 3.48957 7.19998 3.82018 6.7959 3.82018C6.39181 3.82018 6.0612 3.48957 6.0612 3.08549C6.0612 2.64467 6.02447 2.20385 6.13467 1.79977C6.35508 0.844671 6.97957 0.29365 7.93467 0.109977C7.97141 0.109977 8.00814 0.0732422 8.04487 0.0732422C10.9469 0.0732422 13.849 0.0732422 16.7143 0.0732422C16.751 0.0732422 16.7877 0.109977 16.8612 0.109977C17.4122 0.256916 17.7796 0.550793 18 1.10181C17.9632 1.10181 17.9632 1.21202 18 1.28549C18 5.95079 18 10.5794 18 15.2447Z" fill="#626972"/>
<path d="M4.53391 8.26506C4.60738 8.26506 4.68085 8.26506 4.75432 8.26506C5.67268 8.26506 6.55432 8.26506 7.47268 8.26506C7.9135 8.26506 8.24411 7.97119 8.28085 7.5671C8.31758 7.12629 7.98697 6.75894 7.50942 6.75894C6.59105 6.75894 5.67268 6.75894 4.71758 6.75894C4.64411 6.75894 4.60738 6.75894 4.49717 6.75894C4.49717 6.68547 4.49717 6.612 4.49717 6.53853C4.49717 5.87731 4.49717 5.21608 4.49717 4.55486C4.49717 4.18751 4.35023 3.93037 4.05636 3.78343C3.76248 3.63649 3.4686 3.70996 3.17472 4.00384C2.21962 4.95894 1.22779 5.95078 0.272684 6.90588C-0.0946627 7.27323 -0.0946627 7.71404 0.272684 8.08139C1.22779 9.07323 2.21962 10.0283 3.21146 11.0202C3.65228 11.461 4.3135 11.2773 4.49717 10.7263C4.53391 10.6161 4.53391 10.5059 4.53391 10.3957C4.53391 9.77118 4.53391 9.10996 4.53391 8.48547C4.53391 8.412 4.53391 8.33853 4.53391 8.26506Z" fill="#626972"/>
</svg>
