<svg width="179" height="206" viewBox="0 0 179 206" fill="none" xmlns="http://www.w3.org/2000/svg">
<mask id="mask0_328_15" style="mask-type:alpha" maskUnits="userSpaceOnUse" x="25" y="71" width="130" height="131">
<path d="M89.968 201.279C125.849 201.279 154.936 172.115 154.936 136.139C154.936 100.164 125.849 71 89.968 71C54.0872 71 25 100.164 25 136.139C25 172.115 54.0872 201.279 89.968 201.279Z" fill="url(#paint0_linear_328_15)"/>
</mask>
<g mask="url(#mask0_328_15)">
<path d="M89.968 201.279C125.849 201.279 154.936 172.115 154.936 136.139C154.936 100.164 125.849 71 89.968 71C54.0872 71 25 100.164 25 136.139C25 172.115 54.0872 201.279 89.968 201.279Z" fill="#031114"/>
</g>
<mask id="mask1_328_15" style="mask-type:alpha" maskUnits="userSpaceOnUse" x="25" y="139" width="130" height="47">
<path d="M154.58 144.419C147.414 141.278 138.113 139.779 132.276 141.968C126.818 144.014 127.696 148.082 122.096 149.772C113.056 152.484 106.791 143.086 93.3375 143.515C81.3547 143.919 77.2022 151.651 68.1618 149.772C62.5144 148.582 61.4467 145.013 57.4366 142.492C50.6977 138.257 37.7895 138.304 25.3559 140.731C26.4949 157.028 33.5896 171.683 44.5047 182.484C56.7722 184.768 70.1312 185.981 83.1343 185.482C106.008 184.625 129.167 178.487 144.923 171.16C149.953 163.261 153.346 154.173 154.58 144.419Z" fill="url(#paint1_linear_328_15)"/>
</mask>
<g mask="url(#mask1_328_15)">
<path d="M154.58 144.419C147.414 141.278 138.113 139.779 132.276 141.968C126.818 144.014 127.696 148.082 122.096 149.772C113.056 152.484 106.791 143.086 93.3375 143.515C81.3547 143.919 77.2022 151.651 68.1618 149.772C62.5144 148.582 61.4467 145.013 57.4366 142.492C50.6977 138.257 37.7895 138.304 25.3559 140.731C26.4949 157.028 33.5896 171.683 44.5047 182.484C56.7722 184.768 70.1312 185.981 83.1343 185.482C106.008 184.625 129.167 178.487 144.923 171.16C149.953 163.261 153.346 154.173 154.58 144.419Z" fill="url(#paint2_linear_328_15)"/>
<path d="M74.9006 140.517C71.9583 140.517 68.5889 138.899 65.8838 136.211C63.1788 133.499 61.5653 130.12 61.5653 127.146C61.5653 125.315 63.0364 124.149 64.4601 123.007C65.8601 121.889 67.2126 120.818 67.2838 119.153C67.3313 118.201 66.9279 117.559 66.5245 116.869C66.0737 116.131 65.5991 115.37 65.694 114.18C65.8601 112.111 67.7109 110.207 71.1752 108.518C71.3413 108.423 71.5549 108.518 71.6498 108.685C71.7447 108.851 71.6498 109.065 71.4837 109.161C68.2567 110.731 66.5482 112.444 66.3821 114.228C66.3109 115.18 66.6906 115.774 67.1177 116.464C67.5448 117.178 68.0431 117.963 67.9957 119.153C67.9007 121.127 66.3821 122.341 64.911 123.53C63.5585 124.601 62.3009 125.624 62.3009 127.099C62.3009 129.882 63.8432 133.094 66.4296 135.664C68.9922 138.233 72.1956 139.756 74.948 139.756C75.1379 139.756 75.304 139.922 75.304 140.113C75.2565 140.374 75.0904 140.517 74.9006 140.517Z" fill="#4FC7A0"/>
<path d="M107.171 139.423C106.981 139.423 106.815 139.28 106.815 139.09C106.815 138.899 106.957 138.733 107.147 138.709C124.54 137.71 127.482 127.384 127.981 124.22C128.669 119.819 127.103 115.56 124.422 114.514C123.591 114.204 122.879 114.585 122.049 115.061C121.266 115.489 120.459 115.941 119.51 115.774C117.588 115.418 116.117 112.92 115.049 108.114C115.001 107.923 115.12 107.733 115.31 107.686C115.5 107.638 115.69 107.757 115.737 107.947C116.734 112.396 118.039 114.775 119.628 115.061C120.317 115.18 120.981 114.823 121.693 114.418C122.547 113.943 123.52 113.395 124.659 113.824C127.696 114.989 129.404 119.486 128.645 124.292C128.171 127.622 125.133 138.4 107.171 139.423C107.195 139.423 107.195 139.423 107.171 139.423Z" fill="#4FC7A0"/>
</g>
<path d="M88.9764 102.636L51.1729 168.071C50.6644 169.088 51.3425 170.275 52.3596 170.275H127.797C128.984 170.275 129.662 169.088 128.984 168.071L91.1802 102.636C90.8411 101.788 89.4849 101.788 88.9764 102.636Z" fill="#00A3D8"/>
<path d="M93.2144 158.069C93.2144 159.765 91.8582 161.121 90.163 161.121C88.4678 161.121 87.1116 159.765 87.1116 158.069C87.1116 156.374 88.4678 155.018 90.163 155.018C91.8582 155.018 93.2144 156.374 93.2144 158.069Z" fill="white"/>
<path d="M90.163 152.136C88.8068 152.136 87.6202 151.119 87.6202 149.763L86.603 127.216C86.4335 125.182 88.1287 123.487 90.163 123.487C92.1973 123.487 93.8925 125.182 93.723 127.216L92.7058 149.763C92.7058 150.949 91.5192 152.136 90.163 152.136Z" fill="white"/>
<path d="M15.1296 197.418L22.5626 180.307C22.7871 181.266 23.3859 182.398 24.4992 184.035L24.8968 184.62C26.4077 186.842 28.9712 190.486 26.3095 193.236C26.0756 193.395 26.1177 193.709 26.2768 193.943C26.3563 194.06 26.4545 194.078 26.5528 194.097C26.7492 194.135 26.8662 194.055 26.9831 193.976C30.15 190.71 27.2076 186.383 25.5985 184.143L25.2008 183.558C23.1332 180.517 23.1426 179.399 23.2502 178.3L25.2289 173.791C25.4534 174.75 26.0522 175.882 27.1655 177.519L27.7783 178.043C29.2892 180.265 31.8527 183.909 29.191 186.659C28.9571 186.818 28.9992 187.132 29.1583 187.366C29.2378 187.483 29.336 187.501 29.4343 187.52C29.6307 187.558 29.7477 187.478 29.8646 187.398C33.0315 184.133 30.0891 179.806 28.48 177.566L28.0823 176.981C26.0147 173.94 26.0241 172.822 26.1317 171.723C26.1878 171.428 26.0288 171.195 25.7341 171.138C25.4394 171.082 25.2055 171.241 25.1493 171.536C25.1493 171.536 25.1306 171.634 25.0324 171.616L14.5074 195.875C13.6701 194.392 11.6399 193.293 9.28701 193.353C6.12949 193.363 3.61752 195.327 3.67834 197.68C3.73916 200.033 6.22776 201.933 9.38528 201.923C12.5428 201.914 15.0548 199.949 14.9939 197.596C15.1109 197.517 15.1296 197.418 15.1296 197.418Z" fill="#07252C"/>
<path d="M36.5098 35.3871C33.8372 34.8328 31.0981 35.447 28.9435 36.6166C27.6891 37.3068 26.6837 38.131 25.8317 39.1179C25.5633 38.5721 25.266 37.9305 25.0934 37.3559C24.6523 36.2354 24.1154 35.1437 23.6455 33.9275C24.5069 32.6245 25.2438 31.2545 25.8562 29.8174C27.4446 26.4164 28.257 22.5177 27.671 18.8303C27.085 15.143 26.4703 11.3598 24.4096 8.32448C23.959 7.52011 23.4033 7.06061 22.5791 6.05527C22.2724 5.72975 21.6591 5.07871 21.0746 4.52344C20.5188 4.06394 19.4173 3.87288 18.4596 4.16066C16.6017 4.92778 15.9894 6.3648 15.578 7.42817C15.4346 7.99336 15.2624 8.46277 15.2147 8.99917C15.2053 9.31526 15.1383 9.43981 15.1001 9.66013L15.0331 9.78468C14.9661 9.90922 15.0619 9.88045 14.9949 10.005L15.11 10.3881C15.0822 12.3804 15.6002 14.1042 16.0895 15.7323C16.5787 17.3604 17.0392 18.8927 17.6242 20.492C18.2766 23.0108 19.1207 25.472 20.0317 27.8087C19.4575 29.0254 18.7876 30.2709 18.0889 31.4206L16.7586 33.5954C16.3278 34.247 15.8589 35.1188 15.39 35.9906C13.6482 39.2289 12.4334 42.8309 12.2244 46.6527C11.8909 50.4075 13.0326 54.5544 15.5722 57.4459C18.1118 60.3373 21.6756 61.7724 25.0473 62.2211C28.3903 62.5739 31.6276 62.2276 34.5964 61.3355C35.2484 62.8102 35.9004 64.285 36.5236 65.664C38.441 69.2645 37.8871 72.9811 35.8094 74.7541C34.1913 75.9713 32.4193 75.9817 31.1356 75.5321C31.2314 75.5033 31.3559 75.5703 31.5475 75.5127C33.3001 75.0905 34.4583 73.385 34.0073 71.5366C33.585 69.784 31.8795 68.6258 30.0312 69.0768C28.2785 69.4991 27.1203 71.2045 27.5714 73.0529C27.6001 73.1487 27.6577 73.3402 27.6865 73.436C27.8879 74.1064 28.3479 74.5947 28.9037 75.0542C29.057 75.2169 29.1815 75.2839 29.3349 75.4467C30.0152 75.9732 30.9828 76.4133 32.1801 76.5756C33.3775 76.7379 34.8716 76.4978 36.2888 75.6542C37.706 74.8107 38.8642 73.1052 39.0165 71.1799C39.1406 70.2029 39.1401 69.1588 38.8523 68.2012C38.5358 67.1477 38.1522 66.2188 37.7687 65.2899C37.1454 63.9109 36.5222 62.5319 35.8702 61.0571C38.4654 59.964 40.754 58.5454 42.6783 56.6097C44.8324 54.3961 46.1241 51.3975 46.1514 48.3612C46.2745 45.2961 45.1909 42.3848 43.4562 40.0868C41.8554 37.5398 39.3739 35.8839 36.5098 35.3871ZM18.5785 12.896C18.6832 11.5071 18.7964 7.71404 20.942 7.90463C22.3309 8.00935 22.916 9.60865 23.1655 10.7867C23.751 13.43 23.8289 16.1215 23.15 18.727C22.5381 21.2081 21.8017 23.6222 20.912 25.8735C20.3364 23.9581 19.7608 22.0427 19.281 20.0985C18.4658 17.7331 18.3497 15.2619 18.5785 12.896ZM25.5728 59.4527C22.7469 58.7356 20.0069 57.2618 18.3967 55.0308C16.7865 52.7999 16.2392 49.9362 16.736 47.0721C17.2328 44.2079 18.6778 41.3721 20.3049 38.7948C20.7356 38.1433 21.1663 37.4918 21.6928 36.8115L22.4491 35.8533C22.5831 35.6042 22.8128 35.3263 22.9756 35.173C23.3591 36.1019 23.7427 37.0308 24.0975 37.864C24.4522 38.6971 24.7782 39.4345 25.1042 40.1719C23.6493 42.2798 22.9129 44.6938 22.9808 46.6573C23.0398 49.981 24.2669 52.3271 25.2732 53.591C25.7908 54.2708 26.222 54.6633 26.5286 54.9888C26.8353 55.3143 26.9886 55.4771 26.9886 55.4771C26.9886 55.4771 26.5381 54.6727 26.0106 53.265C25.4832 51.8572 24.8882 49.5299 25.4425 46.8574C25.6336 45.7558 26.045 44.6924 26.6479 43.5715C28.0382 46.8083 29.4956 49.9205 30.7996 52.87C31.8063 55.1779 32.8801 57.3613 33.8005 59.3819C31.0902 60.0919 28.1784 60.1316 25.5728 59.4527ZM44.5134 48.1225C44.7541 50.6606 43.7879 53.3526 41.739 55.2213C39.9486 56.9079 37.7271 58.202 35.2659 59.046C34.3166 56.9296 33.2141 54.6505 32.0828 52.2756C30.5297 49.1921 29.0148 45.8883 27.4424 42.393C28.2656 41.3102 29.3667 40.4573 30.7169 39.7383C33.8292 38.281 38.0916 38.5664 41.3497 41.764C42.883 43.3916 44.1771 45.6132 44.5134 48.1225Z" fill="#07252C"/>
<path d="M63.2736 63.8L67.3736 45.6C67.7736 46.5 68.5736 47.5 69.9736 48.9L70.4736 49.4C72.3736 51.3 75.5736 54.4 73.4736 57.6C73.2736 57.8 73.3736 58.1 73.5736 58.3C73.6736 58.4 73.7736 58.4 73.8736 58.4C74.0736 58.4 74.1736 58.3 74.2736 58.2C76.7736 54.4 73.0736 50.7 71.0736 48.8L70.5736 48.3C67.9736 45.7 67.7736 44.6 67.6736 43.5L68.7736 38.7C69.1736 39.6 69.9736 40.6 71.3736 42L72.0736 42.4C73.9736 44.3 77.1736 47.4 75.0736 50.6C74.8736 50.8 74.9736 51.1 75.1736 51.3C75.2736 51.4 75.3736 51.4 75.4736 51.4C75.6736 51.4 75.7736 51.3 75.8736 51.2C78.3736 47.4 74.6736 43.7 72.6736 41.8L72.1736 41.3C69.5736 38.7 69.3736 37.6 69.2736 36.5C69.2736 36.2 69.0736 36 68.7736 36C68.4736 36 68.2736 36.2 68.2736 36.5C68.2736 36.5 68.2736 36.6 68.1736 36.6L62.3736 62.4C61.2736 61.1 59.0736 60.4 56.7736 60.9C53.6736 61.5 51.5736 63.9 52.0736 66.2C52.5736 68.5 55.3736 69.9 58.4736 69.3C61.5736 68.7 63.6736 66.3 63.1736 64C63.2736 63.9 63.2736 63.8 63.2736 63.8Z" fill="#07252C"/>
<path d="M177.748 113.2L175.148 102.8L175.348 102.7L174.648 100L164.248 105.3L164.948 108.2L165.048 108.1L167.448 117.7C166.748 117.5 165.848 117.7 165.148 118.3C164.048 119.2 163.648 120.5 164.348 121.3C165.048 122 166.448 122 167.448 121.2C168.548 120.4 168.948 119 168.248 118.2L168.148 118.1L166.048 109.1L174.948 104.5L176.948 112.7C176.248 112.5 175.348 112.7 174.648 113.3C173.548 114.2 173.148 115.5 173.848 116.3C174.448 117.1 175.848 117.1 176.948 116.2C178.048 115.5 178.448 114.1 177.748 113.2C177.848 113.3 177.748 113.3 177.748 113.2ZM165.848 108.5L165.648 107.8L174.548 103.2L174.748 104L165.848 108.5Z" fill="#07252C"/>
<path d="M173.88 75.0081L173.485 74.8726C171.509 74.0596 171.114 73.5176 170.719 72.9756L170.323 70.6721C170.719 71.0786 171.509 71.4851 172.563 71.8916L172.958 72.0271C174.407 72.5691 176.91 73.5176 176.646 75.8211C176.646 75.9566 176.778 76.0921 176.91 76.2276C177.041 76.2276 177.173 76.0921 177.173 75.9566C177.568 73.1111 174.802 72.0271 173.221 71.4851L172.826 71.3496C170.85 70.5366 170.455 69.9946 170.06 69.4526C170.06 69.4526 170.06 69.4526 169.928 69.4526L169.533 67.0136C170.06 67.4201 170.719 67.6911 171.772 68.2331L172.168 68.3686C173.617 68.9106 176.119 69.8591 175.856 72.1626C175.856 72.2981 175.988 72.4336 176.119 72.5691C176.251 72.5691 176.383 72.4336 176.383 72.2981C176.778 69.5881 173.88 68.5041 172.431 67.9621L172.036 67.5556C170.06 66.8781 169.665 66.336 169.27 65.6585L168.874 63.4905C169.27 63.897 169.928 64.168 170.982 64.71L171.377 64.8455C172.826 65.3875 175.329 66.336 175.065 68.6396C175.065 68.7751 175.197 68.9106 175.329 69.0461C175.461 69.0461 175.592 68.9106 175.592 68.7751C175.988 66.065 173.09 64.981 171.641 64.439L171.246 64.0325C169.27 63.355 168.874 62.813 168.479 62.1355C168.479 62.1355 168.479 62 168.348 62C168.348 62 168.348 62 168.216 62C168.216 62 168.216 62 168.084 62.1355V62.271L172.168 82.4607C171.246 81.9187 169.797 82.1897 168.611 83.0027C167.162 84.0867 166.503 85.9837 167.426 87.0677C168.216 88.2872 170.06 88.2872 171.641 87.2032C173.09 86.1192 173.617 84.3577 172.958 83.1382L170.982 74.3306C171.509 74.6016 172.168 75.0081 173.353 75.5501L173.748 75.6856C175.197 76.2276 177.7 77.1761 177.436 79.4796C177.436 79.6151 177.568 79.7506 177.7 79.8861C177.832 79.8861 177.963 79.7506 177.963 79.6151C178.359 76.6341 175.461 75.6856 173.88 75.0081Z" fill="#07252C"/>
<path d="M136.234 90.5L136.534 90.5L132.434 108.7C131.434 107.8 129.834 107.4 128.034 107.7C125.434 108.2 123.734 110.2 124.034 112.1C124.434 114 126.834 115.2 129.334 114.7C131.934 114.2 133.634 112.2 133.334 110.3C133.334 110.2 133.334 110.2 133.234 110.1L137.034 93.1L156.034 93L152.534 108.6C151.534 107.7 149.834 107.3 148.134 107.6C145.534 108.1 143.834 110.1 144.134 112C144.534 113.9 146.934 115.1 149.434 114.6C152.034 114.1 153.734 112.1 153.434 110.2C153.434 110.1 153.434 110.1 153.434 110.1L158.034 90.3L158.334 90.3L159.534 85L137.434 85L136.234 90.5ZM156.434 91.8L137.434 91.9L137.734 90.5L156.734 90.3L156.434 91.8Z" fill="#07252C"/>
<defs>
<linearGradient id="paint0_linear_328_15" x1="89.9582" y1="188.329" x2="89.9582" y2="58.07" gradientUnits="userSpaceOnUse">
<stop/>
<stop offset="1" stop-color="white"/>
</linearGradient>
<linearGradient id="paint1_linear_328_15" x1="89.9582" y1="183.283" x2="89.9582" y2="146.039" gradientUnits="userSpaceOnUse">
<stop/>
<stop offset="0.8395" stop-color="white"/>
</linearGradient>
<linearGradient id="paint2_linear_328_15" x1="89.9582" y1="183.283" x2="89.9582" y2="146.039" gradientUnits="userSpaceOnUse">
<stop stop-color="#0F2B31"/>
<stop offset="0.8395" stop-color="#051E23"/>
</linearGradient>
</defs>
</svg>
