<svg width="16" height="18" viewBox="0 0 16 18" fill="none" xmlns="http://www.w3.org/2000/svg">
<path d="M7.87895 8.67064C9.14808 8.67064 10.247 8.24341 11.145 7.40049C12.0429 6.5577 12.4981 5.5265 12.4981 4.33518C12.4981 3.14427 12.0429 2.11293 11.1448 1.26988C10.2467 0.427228 9.14793 0 7.87895 0C6.60968 0 5.51101 0.427228 4.61308 1.27001C3.71516 2.1128 3.25983 3.14413 3.25983 4.33518C3.25983 5.5265 3.71516 6.55784 4.61323 7.40062C5.5113 8.24327 6.61012 8.67064 7.87895 8.67064Z" fill="#626972"/>
<path d="M15.9612 13.841C15.9353 13.4902 15.8829 13.1076 15.8058 12.7036C15.728 12.2966 15.6278 11.9118 15.5078 11.5601C15.3839 11.1966 15.2153 10.8376 15.007 10.4936C14.7907 10.1365 14.5367 9.82562 14.2517 9.56977C13.9537 9.30212 13.5887 9.08693 13.1668 8.92996C12.7463 8.77382 12.2803 8.69472 11.7818 8.69472C11.586 8.69472 11.3967 8.77011 11.031 8.99354C10.806 9.13128 10.5428 9.29059 10.249 9.46678C9.99777 9.61701 9.65744 9.75778 9.23708 9.88522C8.82697 10.0098 8.41056 10.0729 7.99956 10.0729C7.58857 10.0729 7.1723 10.0098 6.76175 9.88522C6.34183 9.75791 6.0015 9.61715 5.75057 9.46691C5.45955 9.29237 5.19619 9.13307 4.96779 8.99341C4.60259 8.76997 4.41312 8.69458 4.21735 8.69458C3.71871 8.69458 3.25285 8.77382 2.83249 8.9301C2.41081 9.08679 2.04576 9.30198 1.74743 9.56991C1.46255 9.82589 1.20841 10.1367 0.992447 10.4936C0.784242 10.8376 0.615689 11.1964 0.491614 11.5602C0.371783 11.9119 0.271558 12.2966 0.193719 12.7036C0.116612 13.1071 0.0642318 13.4898 0.0383342 13.8414C0.0128756 14.1858 0 14.5433 0 14.9043C0 15.8439 0.318233 16.6046 0.945772 17.1655C1.56556 17.7191 2.38565 17.9999 3.38292 17.9999H12.6171C13.6144 17.9999 14.4341 17.7193 15.0541 17.1655C15.6818 16.605 16 15.8442 16 14.9042C15.9999 14.5415 15.9868 14.1837 15.9612 13.841Z" fill="#626972"/>
</svg>
