<svg width="20" height="20" viewBox="0 0 20 20" fill="none" xmlns="http://www.w3.org/2000/svg">
<path d="M20 10.5795C19.9439 10.9346 19.9065 11.3085 19.8504 11.6636C19.5514 13.4206 18.8037 14.972 17.6635 16.3365C17.5888 16.43 17.514 16.5047 17.4392 16.5982C17.7009 16.8599 17.9626 17.1215 18.2243 17.3645C18.6355 17.7758 18.5046 18.2617 17.9626 18.43C16.785 18.8225 15.5888 19.215 14.4112 19.6075C14.1495 19.701 13.9252 19.6823 13.7196 19.4767C13.5327 19.2898 13.514 19.0655 13.6075 18.8038C14.0187 17.6075 14.4112 16.4113 14.8037 15.215C14.9719 14.7103 15.4579 14.5982 15.8504 14.972C16.0934 15.215 16.3364 15.4767 16.6355 15.7571C16.9532 15.2898 17.2897 14.8786 17.5701 14.43C18.4673 12.972 18.9346 11.3645 18.8224 9.64491C18.5794 5.94398 16.7103 3.25239 13.2523 1.81314C8.1682 -0.299014 2.41119 2.87856 1.34577 8.28043C0.485956 12.5982 2.95325 16.9346 7.14016 18.3739C7.75699 18.5795 8.42988 18.6729 9.08409 18.8038C9.47661 18.8786 9.66353 19.0094 9.7196 19.3272C9.77568 19.6075 9.62614 19.8318 9.271 20.0001C9.15885 20.0001 9.0654 20.0001 8.95325 20.0001C8.91586 19.9814 8.87848 19.9627 8.8411 19.9627C7.40184 19.7944 6.03736 19.3458 4.8224 18.5795C1.81306 16.6729 0.205583 13.944 0.0186668 10.4113C-0.112174 7.94398 0.635489 5.70099 2.20558 3.77575C4.1682 1.34585 6.74764 0.0748178 9.86913 5.14293e-05C12.0747 -0.0373317 14.0934 0.616874 15.8691 1.92529C18.0187 3.51407 19.3645 5.64491 19.8318 8.28043C19.8878 8.63557 19.9252 8.99071 19.9813 9.36454C20 9.77575 20 10.187 20 10.5795Z" fill="white"/>
<path d="M7.06534 8.22437C7.06534 7.66362 7.06534 7.12156 7.06534 6.56082C7.06534 6.31783 7.08403 6.05614 7.14011 5.81315C7.43917 4.42998 8.72889 3.4767 10.1495 3.55147C11.5326 3.62624 12.7102 4.69166 12.8971 6.07484C12.9345 6.29913 12.9345 6.54213 12.9345 6.76642C12.9345 7.25241 12.9345 7.7197 12.9345 8.22437C13.0653 8.24306 13.2149 8.26175 13.3457 8.28044C14.0934 8.44867 14.6728 9.14026 14.6915 9.90661C14.7102 11.1403 14.7102 12.3739 14.6915 13.5889C14.6728 14.486 13.9065 15.2524 13.0093 15.2524C11.0093 15.2711 8.99057 15.2711 6.99057 15.2524C6.09338 15.2524 5.32702 14.4674 5.30833 13.5702C5.28964 12.3552 5.28964 11.1403 5.30833 9.9253C5.32702 9.0468 6.01861 8.31783 6.9345 8.24306C6.97188 8.24306 7.00926 8.24306 7.06534 8.22437ZM11.7569 8.22437C11.7569 7.62624 11.7569 7.06549 11.7569 6.48605C11.7569 5.4954 10.9719 4.71035 9.99992 4.71035C9.02796 4.71035 8.24291 5.4954 8.24291 6.48605C8.24291 7.00941 8.24291 7.53278 8.24291 8.07484C8.24291 8.13091 8.24291 8.16829 8.2616 8.22437C9.42048 8.22437 10.5794 8.22437 11.7569 8.22437ZM10.5794 11.7571C10.5794 11.5702 10.5794 11.3646 10.5794 11.1776C10.5607 10.8412 10.3177 10.5982 9.99992 10.5982C9.68216 10.5982 9.42048 10.8599 9.40179 11.1963C9.40179 11.5702 9.40179 11.9627 9.40179 12.3365C9.40179 12.673 9.66347 12.9346 9.99992 12.9346C10.3177 12.9346 10.5794 12.673 10.5794 12.3365C10.5794 12.1309 10.5794 11.944 10.5794 11.7571Z" fill="white"/>
</svg>
