<svg width="19" height="18" viewBox="0 0 19 18" fill="none" xmlns="http://www.w3.org/2000/svg">
<path d="M13.4052 14.4125C9.74612 17.2598 4.72341 16.5452 1.96773 13.2645C-0.69704 10.0908 -0.503858 5.42589 2.445 2.4041C5.2859 -0.505145 10.0359 -0.809012 13.2802 1.68382C16.7347 4.33422 17.6154 9.48871 14.6666 13.1633C15.1666 13.6584 15.6723 14.148 16.1723 14.6488C16.7745 15.2453 17.3825 15.8362 17.9791 16.4439C18.4847 16.956 18.2859 17.7775 17.6041 17.9632C17.2347 18.0645 16.9222 17.952 16.6552 17.6819C15.6211 16.6465 14.5757 15.6223 13.5416 14.5926C13.4961 14.5363 13.4563 14.4744 13.4052 14.4125ZM1.90523 8.09317C1.90523 11.5708 4.76886 14.3956 8.28022 14.3956C11.7859 14.39 14.6325 11.5708 14.6382 8.0988C14.6382 4.62121 11.7916 1.79637 8.27454 1.79074C4.76886 1.77949 1.90523 4.62121 1.90523 8.09317Z" fill="#626972"/>
<path d="M8.47908 2.69679C11.0529 2.76432 13.3029 4.75071 13.6552 7.27731C13.6893 7.5249 13.712 7.77812 13.7234 8.03135C13.7348 8.57156 13.3484 8.98234 12.8313 8.98797C12.3143 8.99359 11.9223 8.59969 11.9052 8.06511C11.8541 6.07309 10.3654 4.57626 8.33703 4.48623C7.84272 4.46372 7.50749 4.23863 7.39385 3.8391C7.22908 3.26513 7.64385 2.70804 8.24044 2.69116C8.31999 2.69679 8.39953 2.69679 8.47908 2.69679Z" fill="#626972"/>
</svg>
