<svg width="18" height="19" viewBox="0 0 18 19" fill="none" xmlns="http://www.w3.org/2000/svg">
<path d="M10.7047 18.0073C9.43453 18.0073 8.16439 18.0073 6.89425 18.0073C6.47088 17.8579 6.28124 17.5503 6.23713 17.1108C6.1798 16.5352 6.07396 15.9639 5.99457 15.3882C5.98134 15.2871 5.94165 15.2256 5.84463 15.1772C5.5315 15.0059 5.22279 14.8257 4.91408 14.6411C4.82587 14.584 4.75531 14.5796 4.65828 14.6191C4.08496 14.8564 3.50281 15.085 2.92508 15.3135C2.43114 15.5112 2.0695 15.3882 1.80489 14.9355C1.25361 13.9907 0.702336 13.0415 0.155472 12.0923C-0.10914 11.6353 -0.0253437 11.2397 0.389215 10.9189C0.874336 10.541 1.35946 10.1587 1.84899 9.78516C1.93278 9.71924 1.95924 9.65332 1.95483 9.54785C1.94601 9.19189 1.94601 8.83594 1.95483 8.47558C1.95924 8.36133 1.92837 8.29541 1.84017 8.2251C1.35064 7.85156 0.865513 7.46924 0.380391 7.09131C-0.0297572 6.77051 -0.109137 6.3794 0.146654 5.93116C0.697928 4.97754 1.2492 4.02393 1.80489 3.07471C2.06068 2.63965 2.44436 2.51221 2.91625 2.69678C3.49399 2.92529 4.07173 3.15381 4.64946 3.39111C4.7509 3.43506 4.82587 3.43066 4.92289 3.36914C5.22279 3.18457 5.52709 3.00879 5.83581 2.8418C5.93724 2.78906 5.97693 2.72754 5.99457 2.61768C6.07837 2.00244 6.17098 1.38721 6.25478 0.776367C6.32093 0.288574 6.62523 0.0117188 7.11917 0.00732422C8.23495 0.00732422 9.35514 0.00732422 10.4709 0.00732422C10.9649 0.00732422 11.2648 0.28418 11.3353 0.776367C11.4235 1.396 11.5117 2.01563 11.6088 2.63526C11.622 2.70557 11.6837 2.78906 11.7455 2.82861C12.0498 3.01758 12.3673 3.18457 12.6716 3.37353C12.7686 3.43506 12.8436 3.43506 12.945 3.39111C13.514 3.1582 14.0873 2.93408 14.6606 2.70557C15.1634 2.50781 15.525 2.62646 15.794 3.09228C16.3409 4.03271 16.8878 4.97754 17.4346 5.91797C17.6992 6.375 17.6199 6.77051 17.2053 7.09571C16.7202 7.47364 16.2351 7.85596 15.7455 8.22949C15.6617 8.29102 15.6309 8.35694 15.6309 8.4624C15.6397 8.82276 15.6397 9.1875 15.6309 9.55225C15.6264 9.65771 15.6573 9.72363 15.7411 9.78516C16.2306 10.1587 16.7158 10.541 17.2009 10.9189C17.6154 11.2441 17.6948 11.6396 17.4302 12.0967C16.8834 13.0415 16.3409 13.9819 15.7896 14.9268C15.5206 15.3926 15.1545 15.5156 14.6562 15.3179C14.0785 15.0894 13.5007 14.8608 12.923 14.6235C12.826 14.584 12.7554 14.5928 12.6672 14.6455C12.3629 14.8301 12.0454 15.0015 11.7411 15.1904C11.6793 15.23 11.6132 15.3091 11.5999 15.3794C11.5029 16.0034 11.4103 16.6274 11.3265 17.2559C11.278 17.6162 11.0972 17.8623 10.7488 17.9766C10.7399 17.981 10.7223 17.9941 10.7047 18.0073ZM8.80387 12.0044C10.4665 12.0044 11.8072 10.6641 11.8072 9.01172C11.8072 7.35938 10.4709 6.01904 8.80828 6.01465C7.14564 6.01025 5.7917 7.35938 5.79611 9.01611C5.80052 10.6685 7.14122 12.0044 8.80387 12.0044Z" fill="#626972"/>
</svg>
